<svg width="229" height="30" viewBox="0 0 229 30" fill="none" xmlns="http://www.w3.org/2000/svg">
<path d="M82.1562 18.6562C82.1562 19.5 81.9844 20.2539 81.6406 20.918C81.3047 21.582 80.8398 22.1328 80.2461 22.5703C79.5586 23.0859 78.8008 23.4531 77.9727 23.6719C77.1523 23.8906 76.1094 24 74.8438 24H67.2266V6.55078H74C75.4062 6.55078 76.4336 6.59766 77.082 6.69141C77.7383 6.78516 78.3867 6.99219 79.0273 7.3125C79.6914 7.64844 80.1836 8.10156 80.5039 8.67188C80.832 9.23438 80.9961 9.87891 80.9961 10.6055C80.9961 11.4492 80.7734 12.1953 80.3281 12.8438C79.8828 13.4844 79.2539 13.9844 78.4414 14.3438V14.4375C79.582 14.6641 80.4844 15.1328 81.1484 15.8438C81.8203 16.5547 82.1562 17.4922 82.1562 18.6562ZM76.3906 11.4844C76.3906 11.1953 76.3164 10.9062 76.168 10.6172C76.0273 10.3281 75.7734 10.1133 75.4062 9.97266C75.0781 9.84766 74.668 9.78125 74.1758 9.77344C73.6914 9.75781 73.0078 9.75 72.125 9.75H71.7031V13.4414H72.4062C73.1172 13.4414 73.7227 13.4297 74.2227 13.4062C74.7227 13.3828 75.1172 13.3047 75.4062 13.1719C75.8125 12.9922 76.0781 12.7617 76.2031 12.4805C76.3281 12.1914 76.3906 11.8594 76.3906 11.4844ZM77.4922 18.5859C77.4922 18.0312 77.3828 17.6055 77.1641 17.3086C76.9531 17.0039 76.5898 16.7773 76.0742 16.6289C75.7227 16.5273 75.2383 16.4727 74.6211 16.4648C74.0039 16.457 73.3594 16.4531 72.6875 16.4531H71.7031V20.8008H72.0312C73.2969 20.8008 74.2031 20.7969 74.75 20.7891C75.2969 20.7812 75.8008 20.6797 76.2617 20.4844C76.7305 20.2891 77.0508 20.0312 77.2227 19.7109C77.4023 19.3828 77.4922 19.0078 77.4922 18.5859ZM98.7266 17.4258C98.7266 19.5898 98.0938 21.2969 96.8281 22.5469C95.5703 23.7891 93.8008 24.4102 91.5195 24.4102C89.2383 24.4102 87.4648 23.7891 86.1992 22.5469C84.9414 21.2969 84.3125 19.5898 84.3125 17.4258C84.3125 15.2461 84.9453 13.5352 86.2109 12.293C87.4844 11.0508 89.2539 10.4297 91.5195 10.4297C93.8164 10.4297 95.5898 11.0547 96.8398 12.3047C98.0977 13.5547 98.7266 15.2617 98.7266 17.4258ZM93.5352 20.625C93.8086 20.2891 94.0117 19.8867 94.1445 19.418C94.2852 18.9414 94.3555 18.2852 94.3555 17.4492C94.3555 16.6758 94.2852 16.0273 94.1445 15.5039C94.0039 14.9805 93.8086 14.5625 93.5586 14.25C93.3086 13.9297 93.0078 13.7031 92.6562 13.5703C92.3047 13.4375 91.9258 13.3711 91.5195 13.3711C91.1133 13.3711 90.75 13.4258 90.4297 13.5352C90.1172 13.6445 89.8164 13.8633 89.5273 14.1914C89.2695 14.4961 89.0625 14.9141 88.9062 15.4453C88.7578 15.9766 88.6836 16.6445 88.6836 17.4492C88.6836 18.168 88.75 18.793 88.8828 19.3242C89.0156 19.8477 89.2109 20.2695 89.4688 20.5898C89.7188 20.8945 90.0156 21.1172 90.3594 21.2578C90.7109 21.3984 91.1094 21.4688 91.5547 21.4688C91.9375 21.4688 92.3008 21.4062 92.6445 21.2812C92.9961 21.1484 93.293 20.9297 93.5352 20.625ZM108.605 24.3516C107.457 24.3516 106.406 24.2148 105.453 23.9414C104.508 23.668 103.684 23.2461 102.98 22.6758C102.285 22.1055 101.746 21.3867 101.363 20.5195C100.98 19.6523 100.789 18.6367 100.789 17.4727C100.789 16.2461 100.992 15.1875 101.398 14.2969C101.812 13.4062 102.387 12.668 103.121 12.082C103.832 11.5273 104.652 11.1211 105.582 10.8633C106.512 10.6055 107.477 10.4766 108.477 10.4766C109.375 10.4766 110.203 10.5742 110.961 10.7695C111.719 10.9648 112.426 11.2188 113.082 11.5312V15.1289H112.484C112.32 14.9883 112.121 14.8242 111.887 14.6367C111.66 14.4492 111.379 14.2656 111.043 14.0859C110.723 13.9141 110.371 13.7734 109.988 13.6641C109.605 13.5469 109.16 13.4883 108.652 13.4883C107.527 13.4883 106.66 13.8477 106.051 14.5664C105.449 15.2773 105.148 16.2461 105.148 17.4727C105.148 18.7383 105.457 19.6992 106.074 20.3555C106.699 21.0117 107.582 21.3398 108.723 21.3398C109.254 21.3398 109.73 21.2812 110.152 21.1641C110.582 21.0391 110.938 20.8945 111.219 20.7305C111.484 20.5742 111.719 20.4102 111.922 20.2383C112.125 20.0664 112.312 19.8984 112.484 19.7344H113.082V23.332C112.418 23.6445 111.723 23.8906 110.996 24.0703C110.277 24.2578 109.48 24.3516 108.605 24.3516ZM129.102 24H124.859V17.4727C124.859 16.9414 124.832 16.4141 124.777 15.8906C124.723 15.3594 124.629 14.9688 124.496 14.7188C124.34 14.4297 124.109 14.2188 123.805 14.0859C123.508 13.9531 123.09 13.8867 122.551 13.8867C122.168 13.8867 121.777 13.9492 121.379 14.0742C120.988 14.1992 120.562 14.3984 120.102 14.6719V24H115.883V5.76562H120.102V12.293C120.852 11.707 121.57 11.2578 122.258 10.9453C122.953 10.6328 123.723 10.4766 124.566 10.4766C125.988 10.4766 127.098 10.8906 127.895 11.7188C128.699 12.5469 129.102 13.7852 129.102 15.4336V24ZM140.961 20.5664V17.8242C140.391 17.8711 139.773 17.9375 139.109 18.0234C138.445 18.1016 137.941 18.1953 137.598 18.3047C137.176 18.4375 136.852 18.6328 136.625 18.8906C136.406 19.1406 136.297 19.4727 136.297 19.8867C136.297 20.1602 136.32 20.3828 136.367 20.5547C136.414 20.7266 136.531 20.8906 136.719 21.0469C136.898 21.2031 137.113 21.3203 137.363 21.3984C137.613 21.4688 138.004 21.5039 138.535 21.5039C138.957 21.5039 139.383 21.418 139.812 21.2461C140.25 21.0742 140.633 20.8477 140.961 20.5664ZM140.961 22.6055C140.734 22.7773 140.453 22.9844 140.117 23.2266C139.781 23.4688 139.465 23.6602 139.168 23.8008C138.754 23.9883 138.324 24.125 137.879 24.2109C137.434 24.3047 136.945 24.3516 136.414 24.3516C135.164 24.3516 134.117 23.9648 133.273 23.1914C132.43 22.418 132.008 21.4297 132.008 20.2266C132.008 19.2656 132.223 18.4805 132.652 17.8711C133.082 17.2617 133.691 16.7812 134.48 16.4297C135.262 16.0781 136.23 15.8281 137.387 15.6797C138.543 15.5312 139.742 15.4219 140.984 15.3516V15.2812C140.984 14.5547 140.688 14.0547 140.094 13.7812C139.5 13.5 138.625 13.3594 137.469 13.3594C136.773 13.3594 136.031 13.4844 135.242 13.7344C134.453 13.9766 133.887 14.1641 133.543 14.2969H133.156V11.1211C133.602 11.0039 134.324 10.8672 135.324 10.7109C136.332 10.5469 137.34 10.4648 138.348 10.4648C140.746 10.4648 142.477 10.8359 143.539 11.5781C144.609 12.3125 145.145 13.4688 145.145 15.0469V24H140.961V22.6055ZM158.562 14.8594H158.188C158.008 14.7969 157.719 14.75 157.32 14.7188C156.922 14.6875 156.59 14.6719 156.324 14.6719C155.723 14.6719 155.191 14.7109 154.73 14.7891C154.27 14.8672 153.773 15 153.242 15.1875V24H149.023V10.8398H153.242V12.7734C154.172 11.9766 154.98 11.4492 155.668 11.1914C156.355 10.9258 156.988 10.793 157.566 10.793C157.715 10.793 157.883 10.7969 158.07 10.8047C158.258 10.8125 158.422 10.8242 158.562 10.8398V14.8594ZM174.406 17.4258C174.406 19.5898 173.773 21.2969 172.508 22.5469C171.25 23.7891 169.48 24.4102 167.199 24.4102C164.918 24.4102 163.145 23.7891 161.879 22.5469C160.621 21.2969 159.992 19.5898 159.992 17.4258C159.992 15.2461 160.625 13.5352 161.891 12.293C163.164 11.0508 164.934 10.4297 167.199 10.4297C169.496 10.4297 171.27 11.0547 172.52 12.3047C173.777 13.5547 174.406 15.2617 174.406 17.4258ZM169.215 20.625C169.488 20.2891 169.691 19.8867 169.824 19.418C169.965 18.9414 170.035 18.2852 170.035 17.4492C170.035 16.6758 169.965 16.0273 169.824 15.5039C169.684 14.9805 169.488 14.5625 169.238 14.25C168.988 13.9297 168.688 13.7031 168.336 13.5703C167.984 13.4375 167.605 13.3711 167.199 13.3711C166.793 13.3711 166.43 13.4258 166.109 13.5352C165.797 13.6445 165.496 13.8633 165.207 14.1914C164.949 14.4961 164.742 14.9141 164.586 15.4453C164.438 15.9766 164.363 16.6445 164.363 17.4492C164.363 18.168 164.43 18.793 164.562 19.3242C164.695 19.8477 164.891 20.2695 165.148 20.5898C165.398 20.8945 165.695 21.1172 166.039 21.2578C166.391 21.3984 166.789 21.4688 167.234 21.4688C167.617 21.4688 167.98 21.4062 168.324 21.2812C168.676 21.1484 168.973 20.9297 169.215 20.625ZM190.684 10.8398L185.609 24H180.828L175.789 10.8398H180.254L183.301 19.8867L186.312 10.8398H190.684ZM209.141 24H204.805L197.398 12.0234V24H193.273V6.55078H198.652L205.016 16.5469V6.55078H209.141V24ZM227.562 18.5156C227.562 20.2344 226.832 21.6328 225.371 22.7109C223.918 23.7812 221.941 24.3164 219.441 24.3164C217.996 24.3164 216.734 24.1914 215.656 23.9414C214.586 23.6836 213.582 23.3594 212.645 22.9688V18.7852H213.137C214.066 19.5273 215.105 20.0977 216.254 20.4961C217.41 20.8945 218.52 21.0938 219.582 21.0938C219.855 21.0938 220.215 21.0703 220.66 21.0234C221.105 20.9766 221.469 20.8984 221.75 20.7891C222.094 20.6484 222.375 20.4727 222.594 20.2617C222.82 20.0508 222.934 19.7383 222.934 19.3242C222.934 18.9414 222.77 18.6133 222.441 18.3398C222.121 18.0586 221.648 17.8438 221.023 17.6953C220.367 17.5391 219.672 17.3945 218.938 17.2617C218.211 17.1211 217.527 16.9453 216.887 16.7344C215.418 16.2578 214.359 15.6133 213.711 14.8008C213.07 13.9805 212.75 12.9648 212.75 11.7539C212.75 10.1289 213.477 8.80469 214.93 7.78125C216.391 6.75 218.266 6.23438 220.555 6.23438C221.703 6.23438 222.836 6.34766 223.953 6.57422C225.078 6.79297 226.051 7.07031 226.871 7.40625V11.4258H226.391C225.688 10.8633 224.824 10.3945 223.801 10.0195C222.785 9.63672 221.746 9.44531 220.684 9.44531C220.309 9.44531 219.934 9.47266 219.559 9.52734C219.191 9.57422 218.836 9.66797 218.492 9.80859C218.188 9.92578 217.926 10.1055 217.707 10.3477C217.488 10.582 217.379 10.8516 217.379 11.1562C217.379 11.6172 217.555 11.9727 217.906 12.2227C218.258 12.4648 218.922 12.6875 219.898 12.8906C220.539 13.0234 221.152 13.1523 221.738 13.2773C222.332 13.4023 222.969 13.5742 223.648 13.793C224.984 14.2305 225.969 14.8281 226.602 15.5859C227.242 16.3359 227.562 17.3125 227.562 18.5156Z" fill="white"/>
<g clip-path="url(#clip0_20_1058)">
<path d="M0.379744 4.95937C0.290681 5.00156 0.173494 5.1 0.121931 5.17031C0.0281811 5.29687 0.0234936 5.37187 0.00943111 6.84844C-0.00463139 8.30625 5.61147e-05 8.40469 0.0891186 8.60156C0.164119 8.77031 0.225056 8.83594 0.384431 8.90625C0.571931 8.99062 0.698494 9 2.03912 9C2.85474 9 3.56724 8.98125 3.66099 8.95312C3.75006 8.92969 3.88599 8.84062 3.96568 8.76094L4.10162 8.62031L4.11568 6.97969C4.12974 5.39062 4.12506 5.32969 4.03131 5.17969C3.84849 4.88437 3.79224 4.875 2.07662 4.875C0.707869 4.875 0.520369 4.88437 0.379744 4.95937Z" fill="#EF7504"/>
<path d="M5.6766 4.95936C5.58754 5.00155 5.47035 5.09998 5.41879 5.1703C5.32504 5.30155 5.32035 5.3578 5.32035 6.93748C5.32035 9.17342 5.14691 8.99998 7.35004 8.99998C8.98597 8.99998 9.0516 8.99061 9.28129 8.74217L9.39847 8.61561V6.93748V5.25936L9.28129 5.1328C9.0516 4.88436 8.98597 4.87498 7.35004 4.87498C6.00004 4.87498 5.81722 4.88436 5.6766 4.95936Z" fill="white"/>
<path d="M11.1233 4.91717C10.8936 4.97811 10.7343 5.09999 10.6593 5.27811C10.603 5.41405 10.5936 5.72342 10.603 7.03124L10.6171 8.62499L10.7952 8.79842L10.9686 8.97655L12.5999 8.99061C14.1093 8.99999 14.2358 8.9953 14.3858 8.91561C14.7093 8.74217 14.7186 8.6953 14.7186 6.93749C14.7186 4.73436 14.878 4.90311 12.7499 4.88905C11.939 4.88436 11.203 4.89842 11.1233 4.91717Z" fill="white"/>
<path d="M16.2094 4.99219C16.1438 5.02969 16.0406 5.13281 15.9891 5.22187C15.8953 5.37187 15.8906 5.4375 15.8906 6.96562C15.8906 8.46094 15.8953 8.56406 15.9844 8.70469C16.1578 8.99531 16.1859 9 17.9578 9C19.4813 9 19.5656 8.99531 19.7109 8.90625C20.0063 8.72344 20.0156 8.6625 20.0156 6.96094C20.0156 5.25937 20.0063 5.19844 19.7109 5.01562C19.5656 4.92656 19.4813 4.92188 17.9484 4.92188C16.6359 4.92656 16.3125 4.93594 16.2094 4.99219Z" fill="white"/>
<path d="M21.5296 4.99686C21.4452 5.03905 21.3327 5.14217 21.2811 5.22655C21.1921 5.37186 21.1874 5.45624 21.1874 6.96561C21.1874 9.19686 21.014 9.01874 23.1796 9.03749C24.7124 9.05155 24.7265 9.04686 24.9327 8.94374C25.3077 8.75155 25.3124 8.7328 25.3124 6.98436C25.3124 5.2828 25.303 5.24061 24.989 5.02967C24.8296 4.92186 24.8155 4.92186 23.2546 4.92186C21.9093 4.92186 21.6561 4.93592 21.5296 4.99686Z" fill="white"/>
<path d="M26.8359 5.01562C26.4844 5.18906 26.4844 5.17969 26.4844 6.98437C26.4844 8.78437 26.4844 8.78437 26.8219 8.95781C26.9812 9.04219 27.1125 9.04688 28.5281 9.04688C30.2203 9.04688 30.2766 9.0375 30.4828 8.74687C30.5859 8.60156 30.5859 8.58281 30.5859 6.98437C30.5859 4.74844 30.7547 4.92187 28.5375 4.92187C27.1172 4.92187 27.0094 4.92656 26.8359 5.01562Z" fill="white"/>
<path d="M32.2219 4.97344C32.0063 5.03437 31.7953 5.29687 31.7578 5.54062C31.7438 5.65312 31.7344 6.375 31.7438 7.14844C31.7578 8.70937 31.7719 8.77031 32.0766 8.95312C32.2172 9.04219 32.3203 9.04688 33.811 9.04688C35.5547 9.04688 35.5641 9.04688 35.775 8.75625L35.8828 8.60156V6.99844C35.8828 5.45625 35.8781 5.39062 35.7844 5.26875C35.7328 5.19844 35.6297 5.09531 35.5594 5.04375C35.4375 4.95 35.3672 4.94531 33.9 4.93594C33.0516 4.93125 32.3016 4.94531 32.2219 4.97344Z" fill="white"/>
<path d="M37.4297 5.01563C37.2844 5.07188 37.1297 5.26406 37.0782 5.44219C37.0172 5.65313 37.0172 8.3625 37.0782 8.5875C37.1063 8.68125 37.2 8.82188 37.2938 8.90156L37.4579 9.04688H39.0844C40.6172 9.04688 40.7204 9.04219 40.861 8.95313C41.1516 8.77969 41.1563 8.74688 41.1563 7.00781C41.1563 5.26875 41.1516 5.23594 40.861 5.0625C40.7204 4.97344 40.6172 4.96875 39.1172 4.97344C38.2407 4.97344 37.4813 4.99219 37.4297 5.01563Z" fill="white"/>
<path d="M42.6516 5.07657C42.3375 5.2875 42.3282 5.33438 42.3282 7.02188C42.3282 9.20625 42.1969 9.06563 44.2032 9.08438C45.9 9.10313 46.0313 9.08907 46.261 8.88282L46.4297 8.72813L46.4438 7.06875C46.4532 5.5125 46.4485 5.40469 46.3641 5.26875C46.186 4.97813 46.1157 4.96875 44.3766 4.96875C42.825 4.96875 42.811 4.96875 42.6516 5.07657Z" fill="white"/>
<path d="M48.0141 5.10938C47.7234 5.28281 47.7188 5.31563 47.7188 7.06406C47.7188 8.55469 47.7234 8.65781 47.8125 8.79844C48.0047 9.1125 47.5922 9.09375 53.8641 9.09375C59.475 9.09375 59.5453 9.09375 59.6953 9C59.9906 8.81719 60 8.75625 60 7.05469C60 5.35313 59.9906 5.29219 59.6953 5.10938C59.5453 5.01563 59.475 5.01563 53.8547 5.01563C48.2953 5.01563 48.1594 5.02031 48.0141 5.10938Z" fill="white"/>
<path d="M0.375 10.2563C0.285938 10.2984 0.164062 10.4063 0.107813 10.4953C0 10.6547 0 10.6688 0 12.2344C0 13.8 0 13.8141 0.107813 13.9734C0.332813 14.3109 0.145313 14.2969 3.96094 14.2969C7.22344 14.2969 7.39219 14.2922 7.57969 14.2078C7.94063 14.0391 7.94531 14.025 7.94531 12.2344C7.94531 10.7484 7.94063 10.6547 7.85156 10.5047C7.8 10.4203 7.68281 10.3078 7.59375 10.2609C7.43906 10.1766 7.25625 10.1719 3.98438 10.1719C0.796875 10.1719 0.525 10.1766 0.375 10.2563Z" fill="white"/>
<path d="M51.8906 10.2563C51.7875 10.3125 51.6844 10.4203 51.6234 10.5469C51.5203 10.7484 51.5156 10.7906 51.5156 12.2344C51.5156 13.5844 51.525 13.7297 51.6047 13.9078C51.6703 14.0484 51.75 14.1328 51.8859 14.1984C52.0734 14.2969 52.1297 14.2969 55.7672 14.2969C59.8875 14.2969 59.6672 14.3156 59.8922 13.9734C60 13.8141 60 13.8 60 12.2344C60 10.6688 60 10.6547 59.8922 10.4953C59.6672 10.1531 59.8875 10.1719 55.7578 10.1719C52.2609 10.1719 52.0453 10.1766 51.8906 10.2563Z" fill="#EF7504"/>
<path d="M9.46406 10.3266C9.15 10.5375 9.14062 10.5844 9.14062 12.2531C9.14062 13.65 9.14531 13.7625 9.23438 13.9453C9.40781 14.3016 9.38906 14.2969 11.2406 14.2969C12.8297 14.2969 12.8813 14.2922 13.0031 14.1984C13.2609 13.9969 13.2656 13.9641 13.2656 12.2578C13.2656 10.5187 13.2609 10.4859 12.9703 10.3125C12.8297 10.2234 12.7266 10.2187 11.2219 10.2187C9.6375 10.2187 9.62344 10.2187 9.46406 10.3266Z" fill="white"/>
<path d="M14.8171 10.3031C14.728 10.3453 14.6108 10.4438 14.5593 10.5141C14.4655 10.6406 14.4608 10.7156 14.4468 12.225C14.4327 13.9688 14.4421 14.0063 14.7327 14.2219C14.8593 14.3156 14.9343 14.3203 16.3968 14.3344C17.3718 14.3438 17.9905 14.3344 18.0936 14.3016C18.1874 14.2734 18.3233 14.1891 18.3983 14.1094L18.539 13.9641V12.2813V10.6031L18.4218 10.4766C18.1827 10.2188 18.1733 10.2188 16.514 10.2188C15.1405 10.2188 14.9577 10.2281 14.8171 10.3031Z" fill="white"/>
<path d="M20.1844 10.2656C20.1141 10.2891 20.0109 10.3453 19.9594 10.3922C19.7391 10.5891 19.7344 10.6406 19.7344 12.2906C19.7344 13.7672 19.7391 13.8609 19.8281 14.0062C19.8797 14.0906 19.9875 14.1984 20.0719 14.25C20.2172 14.3391 20.3109 14.3438 21.7875 14.3438C23.4703 14.3438 23.4797 14.3438 23.7188 14.0859L23.8359 13.9594L23.85 12.3375C23.8641 10.0594 24.0375 10.2469 21.8672 10.2328C21.0188 10.2281 20.2594 10.2422 20.1844 10.2656Z" fill="white"/>
<path d="M25.3266 10.3594C25.0359 10.5328 25.0312 10.5656 25.0312 12.2906C25.0312 14.039 25.0406 14.0859 25.3641 14.2594C25.5141 14.339 25.6406 14.3437 27.15 14.3344L28.7813 14.3203L28.9547 14.1422L29.1328 13.9687L29.1469 12.375C29.1609 10.6031 29.1516 10.5328 28.8563 10.3547C28.7203 10.2703 28.5938 10.2656 27.0938 10.2656C25.5703 10.2656 25.4672 10.2703 25.3266 10.3594Z" fill="white"/>
<path d="M30.6234 10.3547C30.3328 10.5375 30.3281 10.5656 30.3281 12.3141C30.3281 13.8047 30.3328 13.9078 30.4219 14.0484C30.5953 14.3391 30.6234 14.3438 32.3906 14.3438C34.1906 14.3438 34.1906 14.3438 34.3641 14.0062C34.4484 13.8469 34.4531 13.7156 34.4531 12.3281C34.4531 10.7016 34.4438 10.6359 34.1953 10.4062L34.0688 10.2891L32.4234 10.275C30.8531 10.2656 30.7641 10.2703 30.6234 10.3547Z" fill="white"/>
<path d="M35.9578 10.3453C35.625 10.5094 35.625 10.5188 35.625 12.3375V13.9594L35.7516 14.1141C35.9813 14.3813 36.0375 14.3906 37.6734 14.3906C39.0516 14.3906 39.1781 14.3813 39.3656 14.2969C39.525 14.2266 39.5859 14.1609 39.6609 13.9922C39.75 13.7906 39.7547 13.6969 39.7406 12.2391C39.7219 10.1016 39.8953 10.2656 37.6641 10.2656C36.3188 10.2656 36.0984 10.2797 35.9578 10.3453Z" fill="white"/>
<path d="M41.2735 10.3594C40.8985 10.5422 40.8985 10.5516 40.8985 12.3281C40.8985 14.5547 40.7344 14.3906 42.961 14.3906C44.7328 14.3906 44.7469 14.3859 44.9438 14.0109C45.0469 13.8047 45.0516 13.7906 45.0375 12.2813C45.0235 10.5469 45.0188 10.5188 44.6578 10.3547C44.4797 10.275 44.3344 10.2656 42.961 10.2656C41.5547 10.2656 41.4469 10.2703 41.2735 10.3594Z" fill="white"/>
<path d="M46.7202 10.3125C46.4999 10.3547 46.2796 10.5609 46.214 10.7812C46.1812 10.8844 46.1718 11.4937 46.1812 12.4453C46.1952 14.1094 46.1952 14.1047 46.514 14.2969C46.6546 14.3859 46.7624 14.3906 48.2484 14.3906C49.9968 14.3906 50.0296 14.3859 50.2031 14.0953C50.2921 13.9547 50.2968 13.8516 50.2968 12.3141V10.6875L50.1421 10.5187C50.0343 10.3969 49.9312 10.3406 49.7812 10.3078C49.5281 10.2609 46.9734 10.2609 46.7202 10.3125Z" fill="white"/>
<path d="M0.478139 15.5016C0.290639 15.5391 0.056264 15.8156 0.0234515 16.0406C0.00938896 16.1531 1.39605e-05 16.8984 0.00938896 17.7047C0.0234515 19.0969 0.028139 19.1719 0.121889 19.2984C0.173451 19.3687 0.290639 19.4672 0.379701 19.5094C0.529701 19.5891 0.853139 19.5937 5.14689 19.5937C10.2094 19.5937 9.96095 19.6078 10.1766 19.3078L10.2891 19.1484V17.5312C10.2891 15.7547 10.2938 15.7828 9.99376 15.5766C9.87189 15.4969 9.63283 15.4922 5.22658 15.4875C2.67189 15.4828 0.539076 15.4922 0.478139 15.5016Z" fill="white"/>
<path d="M11.8547 15.6703C11.5406 15.8812 11.5312 15.9234 11.5312 17.625C11.5312 19.3312 11.5406 19.3781 11.8641 19.5703C12.0141 19.6594 12.1078 19.6641 13.6172 19.6641C15.3891 19.6641 15.3656 19.6687 15.5625 19.3453C15.6516 19.2047 15.6562 19.0969 15.6562 17.6062C15.6562 16.0969 15.6516 16.0125 15.5625 15.8672C15.3797 15.5719 15.3234 15.5625 13.5797 15.5625C12.0281 15.5625 12.0141 15.5625 11.8547 15.6703Z" fill="white"/>
<path d="M17.3391 15.6047C17.1047 15.6797 17.0063 15.7594 16.9172 15.9516C16.8375 16.1297 16.8281 16.2797 16.8281 17.6484C16.8281 19.3219 16.8375 19.3687 17.1516 19.5797C17.3109 19.6875 17.325 19.6875 18.8766 19.6875C20.6156 19.6875 20.6859 19.6781 20.8641 19.3875C20.9484 19.2516 20.9531 19.125 20.9531 17.6156V15.9891L20.8078 15.825C20.7281 15.7312 20.5875 15.6375 20.4938 15.6094C20.2922 15.5531 17.5219 15.5531 17.3391 15.6047Z" fill="white"/>
<path d="M22.5234 15.6281C22.4438 15.6609 22.3219 15.7594 22.2516 15.8391L22.125 15.9938V17.625V19.2563L22.2516 19.4109C22.4813 19.6781 22.5375 19.6875 24.1875 19.6875C25.8516 19.6875 25.9172 19.6781 26.1141 19.4016L26.2266 19.2422V17.6156C26.2266 15.3891 26.4 15.5625 24.1875 15.5625C23.025 15.5672 22.6313 15.5813 22.5234 15.6281Z" fill="white"/>
<path d="M27.8625 15.6141C27.7781 15.6375 27.6469 15.7313 27.5672 15.8203L27.4219 15.9891V17.6156C27.4219 19.1625 27.4266 19.2516 27.5156 19.3969C27.6891 19.6781 27.7641 19.6875 29.4938 19.6875C31.6922 19.6875 31.5188 19.8563 31.5375 17.7047C31.5563 15.4359 31.7016 15.5906 29.5312 15.5766C28.6922 15.5719 27.9422 15.5859 27.8625 15.6141Z" fill="white"/>
<path d="M32.9344 15.7547C32.8313 15.8437 32.7469 15.9703 32.7188 16.0828C32.686 16.2047 32.6719 16.8094 32.6813 17.7562C32.6954 19.4062 32.6954 19.4015 33.0141 19.5937C33.1548 19.6828 33.2626 19.6875 34.7579 19.6875C36.9798 19.6875 36.8157 19.8328 36.8344 17.8594C36.8532 16.1672 36.8391 16.0312 36.6329 15.8015L36.4782 15.6328L34.7907 15.6187L33.1032 15.6047L32.9344 15.7547Z" fill="white"/>
<path d="M38.2922 15.7172C37.9781 15.9281 37.9687 15.975 37.9687 17.6438C37.9687 19.8516 37.8281 19.7063 39.9469 19.725C40.8703 19.7344 41.5031 19.7203 41.6109 19.6922C41.714 19.6641 41.8547 19.575 41.9297 19.5L42.0703 19.3547L42.0844 17.7188C42.0984 15.9047 42.0937 15.8813 41.7984 15.7031C41.6578 15.6141 41.5547 15.6094 40.05 15.6094C38.4656 15.6094 38.4515 15.6094 38.2922 15.7172Z" fill="white"/>
<path d="M43.6453 15.6938C43.5563 15.736 43.4391 15.8344 43.3875 15.9047C43.2938 16.036 43.2891 16.0922 43.2891 17.6719C43.2891 19.9078 43.1157 19.7344 45.3188 19.7344C46.9547 19.7344 47.0203 19.725 47.25 19.4766L47.3672 19.35L47.3813 17.6953L47.3953 16.0406L47.2688 15.8953C47.0297 15.6094 47.0297 15.6094 45.3422 15.6094C43.9688 15.6094 43.786 15.6188 43.6453 15.6938Z" fill="white"/>
<path d="M48.9844 15.6422C48.9469 15.6562 48.8625 15.7125 48.8063 15.7687C48.5672 15.9844 48.5625 16.0125 48.5625 17.6578C48.5625 19.3781 48.5719 19.4297 48.8906 19.6172C49.0547 19.7109 49.1109 19.7109 54.2812 19.7109C59.4516 19.7109 59.5078 19.7109 59.6719 19.6172C59.9906 19.4297 60 19.3781 60 17.6578C60 15.9984 60 15.9891 59.7422 15.75L59.6156 15.6328L54.3375 15.6234C51.4313 15.6187 49.0219 15.6281 48.9844 15.6422Z" fill="white"/>
<path d="M8.35788 20.9953C8.03913 21.1922 8.03913 21.1875 8.02507 22.8328C8.01569 23.7938 8.02976 24.3844 8.06257 24.5063C8.09069 24.6234 8.17507 24.75 8.27351 24.8391L8.44226 24.9844H10.6219C13.0688 24.9844 12.9985 24.9938 13.1766 24.6469C13.261 24.4875 13.2657 24.3563 13.2657 22.9453C13.2657 21.2953 13.2657 21.2859 13.0079 21.0469L12.8813 20.9297L10.6969 20.9156C8.59226 20.9063 8.50319 20.9109 8.35788 20.9953Z" fill="white"/>
<path d="M14.7329 21C14.4141 21.1922 14.4141 21.1875 14.4001 22.8375C14.3907 23.7844 14.4048 24.3891 14.4376 24.5109C14.4657 24.6234 14.5501 24.75 14.6485 24.8391L14.8173 24.9844H29.9626C45.0657 24.9844 45.1079 24.9844 45.2579 24.8906C45.5532 24.7078 45.5626 24.6469 45.5626 22.9734C45.5626 21.3422 45.5532 21.2766 45.3048 21.0469L45.1782 20.9297L30.0329 20.9203C15.0798 20.9062 14.8829 20.9062 14.7329 21Z" fill="#EF7504"/>
<path d="M47.0298 20.9953C46.711 21.1922 46.711 21.1875 46.6969 22.8375C46.6876 23.7844 46.7016 24.3891 46.7344 24.5109C46.7626 24.6234 46.8469 24.75 46.9454 24.8391L47.1141 24.9844H49.2938C51.7548 24.9844 51.6657 24.9984 51.8438 24.6328C51.9329 24.45 51.9376 24.3375 51.9376 22.9547C51.9376 21.3422 51.9282 21.2719 51.6798 21.0469L51.5532 20.9297L49.3688 20.9156C47.2641 20.9062 47.1751 20.9109 47.0298 20.9953Z" fill="white"/>
<path d="M53.4047 21C53.1141 21.1734 53.1094 21.2062 53.1094 22.9547C53.1094 24.4453 53.1141 24.5484 53.2031 24.6891C53.3859 24.9937 53.2641 24.9844 56.5406 24.9844C59.3625 24.9844 59.5172 24.9797 59.6531 24.8953C59.9438 24.7219 59.9531 24.6422 59.9531 22.9359C59.9531 21.2156 59.9438 21.1641 59.6203 20.9906C59.4703 20.9109 59.2781 20.9062 56.5078 20.9062C53.6625 20.9062 53.55 20.9109 53.4047 21Z" fill="white"/>
<path d="M0.370313 21.1266C0.103125 21.3516 0.09375 21.4125 0.09375 23.0391C0.09375 24.6656 0.103125 24.7266 0.370313 24.9516L0.525 25.0781H3.50625C6.38438 25.0781 6.49688 25.0734 6.64219 24.9844C6.93281 24.8109 6.9375 24.7781 6.9375 23.0391C6.9375 21.3 6.93281 21.2672 6.64219 21.0937C6.49688 21.0047 6.38438 21 3.50625 21H0.525L0.370313 21.1266Z" fill="white"/>
</g>
<defs>
<clipPath id="clip0_20_1058">
<rect width="60" height="30" fill="white"/>
</clipPath>
</defs>
</svg>
