<svg width="161" height="20" viewBox="0 0 161 20" fill="none" xmlns="http://www.w3.org/2000/svg">
<path d="M15.1562 13.6562C15.1562 14.5 14.9844 15.2539 14.6406 15.918C14.3047 16.582 13.8398 17.1328 13.2461 17.5703C12.5586 18.0859 11.8008 18.4531 10.9727 18.6719C10.1523 18.8906 9.10938 19 7.84375 19H0.226562V1.55078H7C8.40625 1.55078 9.43359 1.59766 10.082 1.69141C10.7383 1.78516 11.3867 1.99219 12.0273 2.3125C12.6914 2.64844 13.1836 3.10156 13.5039 3.67188C13.832 4.23438 13.9961 4.87891 13.9961 5.60547C13.9961 6.44922 13.7734 7.19531 13.3281 7.84375C12.8828 8.48438 12.2539 8.98438 11.4414 9.34375V9.4375C12.582 9.66406 13.4844 10.1328 14.1484 10.8438C14.8203 11.5547 15.1562 12.4922 15.1562 13.6562ZM9.39062 6.48438C9.39062 6.19531 9.31641 5.90625 9.16797 5.61719C9.02734 5.32812 8.77344 5.11328 8.40625 4.97266C8.07812 4.84766 7.66797 4.78125 7.17578 4.77344C6.69141 4.75781 6.00781 4.75 5.125 4.75H4.70312V8.44141H5.40625C6.11719 8.44141 6.72266 8.42969 7.22266 8.40625C7.72266 8.38281 8.11719 8.30469 8.40625 8.17188C8.8125 7.99219 9.07812 7.76172 9.20312 7.48047C9.32812 7.19141 9.39062 6.85938 9.39062 6.48438ZM10.4922 13.5859C10.4922 13.0312 10.3828 12.6055 10.1641 12.3086C9.95312 12.0039 9.58984 11.7773 9.07422 11.6289C8.72266 11.5273 8.23828 11.4727 7.62109 11.4648C7.00391 11.457 6.35938 11.4531 5.6875 11.4531H4.70312V15.8008H5.03125C6.29688 15.8008 7.20312 15.7969 7.75 15.7891C8.29688 15.7812 8.80078 15.6797 9.26172 15.4844C9.73047 15.2891 10.0508 15.0312 10.2227 14.7109C10.4023 14.3828 10.4922 14.0078 10.4922 13.5859ZM31.7266 12.4258C31.7266 14.5898 31.0938 16.2969 29.8281 17.5469C28.5703 18.7891 26.8008 19.4102 24.5195 19.4102C22.2383 19.4102 20.4648 18.7891 19.1992 17.5469C17.9414 16.2969 17.3125 14.5898 17.3125 12.4258C17.3125 10.2461 17.9453 8.53516 19.2109 7.29297C20.4844 6.05078 22.2539 5.42969 24.5195 5.42969C26.8164 5.42969 28.5898 6.05469 29.8398 7.30469C31.0977 8.55469 31.7266 10.2617 31.7266 12.4258ZM26.5352 15.625C26.8086 15.2891 27.0117 14.8867 27.1445 14.418C27.2852 13.9414 27.3555 13.2852 27.3555 12.4492C27.3555 11.6758 27.2852 11.0273 27.1445 10.5039C27.0039 9.98047 26.8086 9.5625 26.5586 9.25C26.3086 8.92969 26.0078 8.70312 25.6562 8.57031C25.3047 8.4375 24.9258 8.37109 24.5195 8.37109C24.1133 8.37109 23.75 8.42578 23.4297 8.53516C23.1172 8.64453 22.8164 8.86328 22.5273 9.19141C22.2695 9.49609 22.0625 9.91406 21.9062 10.4453C21.7578 10.9766 21.6836 11.6445 21.6836 12.4492C21.6836 13.168 21.75 13.793 21.8828 14.3242C22.0156 14.8477 22.2109 15.2695 22.4688 15.5898C22.7188 15.8945 23.0156 16.1172 23.3594 16.2578C23.7109 16.3984 24.1094 16.4688 24.5547 16.4688C24.9375 16.4688 25.3008 16.4062 25.6445 16.2812C25.9961 16.1484 26.293 15.9297 26.5352 15.625ZM41.6055 19.3516C40.457 19.3516 39.4062 19.2148 38.4531 18.9414C37.5078 18.668 36.6836 18.2461 35.9805 17.6758C35.2852 17.1055 34.7461 16.3867 34.3633 15.5195C33.9805 14.6523 33.7891 13.6367 33.7891 12.4727C33.7891 11.2461 33.9922 10.1875 34.3984 9.29688C34.8125 8.40625 35.3867 7.66797 36.1211 7.08203C36.832 6.52734 37.6523 6.12109 38.582 5.86328C39.5117 5.60547 40.4766 5.47656 41.4766 5.47656C42.375 5.47656 43.2031 5.57422 43.9609 5.76953C44.7188 5.96484 45.4258 6.21875 46.082 6.53125V10.1289H45.4844C45.3203 9.98828 45.1211 9.82422 44.8867 9.63672C44.6602 9.44922 44.3789 9.26562 44.043 9.08594C43.7227 8.91406 43.3711 8.77344 42.9883 8.66406C42.6055 8.54688 42.1602 8.48828 41.6523 8.48828C40.5273 8.48828 39.6602 8.84766 39.0508 9.56641C38.4492 10.2773 38.1484 11.2461 38.1484 12.4727C38.1484 13.7383 38.457 14.6992 39.0742 15.3555C39.6992 16.0117 40.582 16.3398 41.7227 16.3398C42.2539 16.3398 42.7305 16.2812 43.1523 16.1641C43.582 16.0391 43.9375 15.8945 44.2188 15.7305C44.4844 15.5742 44.7188 15.4102 44.9219 15.2383C45.125 15.0664 45.3125 14.8984 45.4844 14.7344H46.082V18.332C45.418 18.6445 44.7227 18.8906 43.9961 19.0703C43.2773 19.2578 42.4805 19.3516 41.6055 19.3516ZM62.1016 19H57.8594V12.4727C57.8594 11.9414 57.832 11.4141 57.7773 10.8906C57.7227 10.3594 57.6289 9.96875 57.4961 9.71875C57.3398 9.42969 57.1094 9.21875 56.8047 9.08594C56.5078 8.95312 56.0898 8.88672 55.5508 8.88672C55.168 8.88672 54.7773 8.94922 54.3789 9.07422C53.9883 9.19922 53.5625 9.39844 53.1016 9.67188V19H48.8828V0.765625H53.1016V7.29297C53.8516 6.70703 54.5703 6.25781 55.2578 5.94531C55.9531 5.63281 56.7227 5.47656 57.5664 5.47656C58.9883 5.47656 60.0977 5.89062 60.8945 6.71875C61.6992 7.54688 62.1016 8.78516 62.1016 10.4336V19ZM73.9609 15.5664V12.8242C73.3906 12.8711 72.7734 12.9375 72.1094 13.0234C71.4453 13.1016 70.9414 13.1953 70.5977 13.3047C70.1758 13.4375 69.8516 13.6328 69.625 13.8906C69.4062 14.1406 69.2969 14.4727 69.2969 14.8867C69.2969 15.1602 69.3203 15.3828 69.3672 15.5547C69.4141 15.7266 69.5312 15.8906 69.7188 16.0469C69.8984 16.2031 70.1133 16.3203 70.3633 16.3984C70.6133 16.4688 71.0039 16.5039 71.5352 16.5039C71.957 16.5039 72.3828 16.418 72.8125 16.2461C73.25 16.0742 73.6328 15.8477 73.9609 15.5664ZM73.9609 17.6055C73.7344 17.7773 73.4531 17.9844 73.1172 18.2266C72.7812 18.4688 72.4648 18.6602 72.168 18.8008C71.7539 18.9883 71.3242 19.125 70.8789 19.2109C70.4336 19.3047 69.9453 19.3516 69.4141 19.3516C68.1641 19.3516 67.1172 18.9648 66.2734 18.1914C65.4297 17.418 65.0078 16.4297 65.0078 15.2266C65.0078 14.2656 65.2227 13.4805 65.6523 12.8711C66.082 12.2617 66.6914 11.7812 67.4805 11.4297C68.2617 11.0781 69.2305 10.8281 70.3867 10.6797C71.543 10.5312 72.7422 10.4219 73.9844 10.3516V10.2812C73.9844 9.55469 73.6875 9.05469 73.0938 8.78125C72.5 8.5 71.625 8.35938 70.4688 8.35938C69.7734 8.35938 69.0312 8.48438 68.2422 8.73438C67.4531 8.97656 66.8867 9.16406 66.543 9.29688H66.1562V6.12109C66.6016 6.00391 67.3242 5.86719 68.3242 5.71094C69.332 5.54688 70.3398 5.46484 71.3477 5.46484C73.7461 5.46484 75.4766 5.83594 76.5391 6.57812C77.6094 7.3125 78.1445 8.46875 78.1445 10.0469V19H73.9609V17.6055ZM91.5625 9.85938H91.1875C91.0078 9.79688 90.7188 9.75 90.3203 9.71875C89.9219 9.6875 89.5898 9.67188 89.3242 9.67188C88.7227 9.67188 88.1914 9.71094 87.7305 9.78906C87.2695 9.86719 86.7734 10 86.2422 10.1875V19H82.0234V5.83984H86.2422V7.77344C87.1719 6.97656 87.9805 6.44922 88.668 6.19141C89.3555 5.92578 89.9883 5.79297 90.5664 5.79297C90.7148 5.79297 90.8828 5.79688 91.0703 5.80469C91.2578 5.8125 91.4219 5.82422 91.5625 5.83984V9.85938ZM107.406 12.4258C107.406 14.5898 106.773 16.2969 105.508 17.5469C104.25 18.7891 102.48 19.4102 100.199 19.4102C97.918 19.4102 96.1445 18.7891 94.8789 17.5469C93.6211 16.2969 92.9922 14.5898 92.9922 12.4258C92.9922 10.2461 93.625 8.53516 94.8906 7.29297C96.1641 6.05078 97.9336 5.42969 100.199 5.42969C102.496 5.42969 104.27 6.05469 105.52 7.30469C106.777 8.55469 107.406 10.2617 107.406 12.4258ZM102.215 15.625C102.488 15.2891 102.691 14.8867 102.824 14.418C102.965 13.9414 103.035 13.2852 103.035 12.4492C103.035 11.6758 102.965 11.0273 102.824 10.5039C102.684 9.98047 102.488 9.5625 102.238 9.25C101.988 8.92969 101.688 8.70312 101.336 8.57031C100.984 8.4375 100.605 8.37109 100.199 8.37109C99.793 8.37109 99.4297 8.42578 99.1094 8.53516C98.7969 8.64453 98.4961 8.86328 98.207 9.19141C97.9492 9.49609 97.7422 9.91406 97.5859 10.4453C97.4375 10.9766 97.3633 11.6445 97.3633 12.4492C97.3633 13.168 97.4297 13.793 97.5625 14.3242C97.6953 14.8477 97.8906 15.2695 98.1484 15.5898C98.3984 15.8945 98.6953 16.1172 99.0391 16.2578C99.3906 16.3984 99.7891 16.4688 100.234 16.4688C100.617 16.4688 100.98 16.4062 101.324 16.2812C101.676 16.1484 101.973 15.9297 102.215 15.625ZM123.684 5.83984L118.609 19H113.828L108.789 5.83984H113.254L116.301 14.8867L119.312 5.83984H123.684ZM142.141 19H137.805L130.398 7.02344V19H126.273V1.55078H131.652L138.016 11.5469V1.55078H142.141V19ZM160.562 13.5156C160.562 15.2344 159.832 16.6328 158.371 17.7109C156.918 18.7812 154.941 19.3164 152.441 19.3164C150.996 19.3164 149.734 19.1914 148.656 18.9414C147.586 18.6836 146.582 18.3594 145.645 17.9688V13.7852H146.137C147.066 14.5273 148.105 15.0977 149.254 15.4961C150.41 15.8945 151.52 16.0938 152.582 16.0938C152.855 16.0938 153.215 16.0703 153.66 16.0234C154.105 15.9766 154.469 15.8984 154.75 15.7891C155.094 15.6484 155.375 15.4727 155.594 15.2617C155.82 15.0508 155.934 14.7383 155.934 14.3242C155.934 13.9414 155.77 13.6133 155.441 13.3398C155.121 13.0586 154.648 12.8438 154.023 12.6953C153.367 12.5391 152.672 12.3945 151.938 12.2617C151.211 12.1211 150.527 11.9453 149.887 11.7344C148.418 11.2578 147.359 10.6133 146.711 9.80078C146.07 8.98047 145.75 7.96484 145.75 6.75391C145.75 5.12891 146.477 3.80469 147.93 2.78125C149.391 1.75 151.266 1.23438 153.555 1.23438C154.703 1.23438 155.836 1.34766 156.953 1.57422C158.078 1.79297 159.051 2.07031 159.871 2.40625V6.42578H159.391C158.688 5.86328 157.824 5.39453 156.801 5.01953C155.785 4.63672 154.746 4.44531 153.684 4.44531C153.309 4.44531 152.934 4.47266 152.559 4.52734C152.191 4.57422 151.836 4.66797 151.492 4.80859C151.188 4.92578 150.926 5.10547 150.707 5.34766C150.488 5.58203 150.379 5.85156 150.379 6.15625C150.379 6.61719 150.555 6.97266 150.906 7.22266C151.258 7.46484 151.922 7.6875 152.898 7.89062C153.539 8.02344 154.152 8.15234 154.738 8.27734C155.332 8.40234 155.969 8.57422 156.648 8.79297C157.984 9.23047 158.969 9.82812 159.602 10.5859C160.242 11.3359 160.562 12.3125 160.562 13.5156Z" fill="white"/>
</svg>
