<svg width="40" height="36" viewBox="0 0 40 36" fill="none" xmlns="http://www.w3.org/2000/svg">
<path d="M35.7641 2.20407C34.6621 2.63807 11.4081 12.4321 3.4001 15.8021C2.9321 15.9981 2.0061 16.2981 2.0061 17.2741C2.0061 18.0581 2.6081 18.4461 3.3021 18.7221C5.0541 19.4201 11.5001 22.0001 11.5001 22.0001C11.5001 22.0001 13.8021 28.8901 14.2801 30.4001C14.7581 31.9121 15.1421 31.9481 15.1421 31.9481C15.2481 31.9941 15.3521 32.0121 15.4481 32.0121C15.7561 32.0121 15.9921 31.8321 15.9921 31.8321L22.0001 26.7501L29.0481 33.2701C29.0481 33.2701 29.7481 34.0001 30.5221 34.0001C31.4641 34.0001 32.1461 33.0601 32.2661 32.4501C32.4321 31.5961 37.9001 4.14007 37.9001 4.14007C38.3961 1.92607 36.9261 1.74607 35.7641 2.20407Z" stroke="#EF7504" stroke-width="4" stroke-miterlimit="10"/>
<path d="M29.6001 10C29.3501 10 29.0121 10.238 28.8321 10.35C26.2561 11.956 13.3401 19.306 9.7981 21.318C10.7961 21.718 11.5001 22 11.5001 22C11.5001 22 13.8021 28.89 14.2801 30.4C14.7581 31.912 15.1421 31.948 15.1421 31.948C15.2481 31.994 15.3521 32.012 15.4481 32.012C15.5261 32.012 15.5801 31.984 15.6461 31.966L18.0001 22.75C18.0001 22.75 28.7261 11.894 29.3721 11.262C29.8921 10.756 30.0001 10.578 30.0001 10.402C30.0001 10.168 29.8781 10 29.6001 10Z" fill="#EF7504"/>
</svg>
