<svg width="30" height="30" viewBox="0 0 30 30" fill="none" xmlns="http://www.w3.org/2000/svg">
<path d="M24.8524 5.12748C24.1637 5.39873 9.62991 11.52 4.62491 13.6262C4.33241 13.7487 3.75366 13.9362 3.75366 14.5462C3.75366 15.0362 4.12991 15.2787 4.56366 15.4512C5.65866 15.8875 9.68741 17.5 9.68741 17.5C9.68741 17.5 11.1262 21.8062 11.4249 22.75C11.7237 23.695 11.9637 23.7175 11.9637 23.7175C12.0299 23.7462 12.0949 23.7575 12.1549 23.7575C12.3474 23.7575 12.4949 23.645 12.4949 23.645L16.2499 20.4687L20.6549 24.5437C20.6549 24.5437 21.0924 25 21.5762 25C22.1649 25 22.5912 24.4125 22.6662 24.0312C22.7699 23.4975 26.1874 6.33748 26.1874 6.33748C26.4974 4.95373 25.5787 4.84123 24.8524 5.12748Z" stroke="#EF7504" stroke-width="2" stroke-miterlimit="10"/>
<path d="M21 10C20.8438 10 20.6325 10.1488 20.52 10.2188C18.91 11.2225 10.8375 15.8163 8.62378 17.0738C9.24753 17.3238 9.68753 17.5 9.68753 17.5C9.68753 17.5 11.1263 21.8063 11.425 22.75C11.7238 23.695 11.9638 23.7175 11.9638 23.7175C12.03 23.7463 12.095 23.7575 12.155 23.7575C12.2038 23.7575 12.2375 23.74 12.2788 23.7288L13.75 17.9688C13.75 17.9688 20.4538 11.1837 20.8575 10.7887C21.1825 10.4725 21.25 10.3613 21.25 10.2513C21.25 10.105 21.1738 10 21 10Z" fill="#EF7504"/>
</svg>
