<svg width="40" height="40" viewBox="0 0 40 40" fill="none" xmlns="http://www.w3.org/2000/svg">
<path d="M34.154 5.856C30.382 2.082 25.366 0.002 20.022 0C9.01 0 0.0480001 8.958 0.0440001 19.97C0.0420001 23.49 0.962 26.926 2.71 29.954L0 40L10.466 37.526C13.384 39.118 16.668 39.956 20.012 39.958H20.02C31.03 39.958 39.992 30.998 39.998 19.988C40.002 14.65 37.926 9.632 34.154 5.856ZM29.796 27.108C29.38 28.274 27.342 29.398 26.426 29.48C25.51 29.564 24.652 29.894 20.436 28.232C15.362 26.232 12.158 21.03 11.91 20.698C11.66 20.364 9.872 17.992 9.872 15.536C9.872 13.08 11.162 11.872 11.62 11.374C12.078 10.874 12.618 10.75 12.952 10.75C13.284 10.75 13.618 10.75 13.908 10.762C14.264 10.776 14.658 10.794 15.032 11.624C15.476 12.612 16.446 15.08 16.57 15.33C16.694 15.58 16.778 15.872 16.612 16.204C16.446 16.536 16.362 16.744 16.114 17.036C15.864 17.328 15.59 17.686 15.366 17.91C15.116 18.158 14.856 18.43 15.146 18.928C15.438 19.428 16.438 21.062 17.922 22.384C19.83 24.084 21.436 24.61 21.936 24.862C22.436 25.112 22.726 25.07 23.018 24.736C23.31 24.404 24.266 23.28 24.598 22.78C24.93 22.28 25.264 22.364 25.722 22.53C26.18 22.696 28.634 23.904 29.132 24.154C29.632 24.404 29.964 24.528 30.088 24.736C30.212 24.942 30.212 25.942 29.796 27.108Z" fill="#EF7504"/>
</svg>
