<svg width="51" height="56" viewBox="0 0 51 56" fill="none" xmlns="http://www.w3.org/2000/svg">
<path d="M50.0322 17.3956L26.7236 0.403363C25.9281 -0.132001 25.079 -0.136902 24.2762 0.403363L0.967604 17.3956C0.369949 17.8312 0 18.6093 0 19.3873V36.3794C0 37.1575 0.369949 37.9355 0.967703 38.3712L24.2763 55.3658C25.0718 55.9012 25.9209 55.9061 26.7237 55.3658L50.0323 38.3712C50.63 37.9356 51 37.1575 51 36.3794V19.3873C50.9999 18.6093 50.63 17.8312 50.0322 17.3956ZM27.6914 6.87642L44.8526 19.3873L37.197 24.9892L27.6914 18.049V6.87642ZM23.3085 6.87642V18.049L13.8029 24.9892L6.14728 19.3873L23.3085 6.87642ZM4.3828 23.8688L9.87555 27.8834L4.3828 31.898V23.8688ZM23.3085 48.8904L6.14728 36.3795L13.8029 30.7776L23.3085 37.7178V48.8904ZM25.5 33.5475L17.7588 27.8834L25.5 22.2193L33.2411 27.8834L25.5 33.5475ZM27.6914 48.8904V37.7178L37.197 30.7776L44.8526 36.3795L27.6914 48.8904ZM46.6171 31.898L41.1243 27.8834L46.6171 23.8688V31.898Z" fill="#EF7504"/>
</svg>
