<svg width="25" height="25" viewBox="0 0 25 25" fill="none" xmlns="http://www.w3.org/2000/svg">
<path d="M11.72 0.00448513C11.6771 0.008358 11.5462 0.0219126 11.429 0.0315952C10.3704 0.134226 9.30596 0.521512 8.38994 1.1373C6.26299 2.56638 5.14971 5.06632 5.51885 7.58755C5.74736 9.14057 6.50908 10.5271 7.72393 11.6056C8.61064 12.3918 9.78838 12.9553 10.9778 13.1587C11.4075 13.2342 11.597 13.2477 12.1399 13.2477C12.6829 13.2477 12.8724 13.2342 13.3021 13.1587C15.681 12.7501 17.6966 11.0363 18.472 8.7649C19.1614 6.7452 18.8411 4.54348 17.6087 2.81037C16.4993 1.25348 14.8021 0.258158 12.8724 0.0315952C12.6927 0.010294 11.8606 -0.0090704 11.72 0.00448513Z" fill="#EF7504"/>
<path d="M16.759 12.7617C15.8254 13.4646 14.6399 13.9739 13.4641 14.1753C12.9817 14.2586 12.7844 14.274 12.1399 14.274C11.5168 14.274 11.4289 14.2682 10.9445 14.1947C9.80001 14.0242 8.65744 13.5634 7.68673 12.8856L7.46408 12.7288L7.25704 12.7617C7.14376 12.7811 6.90353 12.8353 6.71994 12.8798C5.14376 13.2748 3.73556 14.0727 2.57931 15.2229C1.16134 16.6326 0.294154 18.4277 0.0461073 20.459C-0.0105333 20.9199 -0.0163927 21.8939 0.0363417 22.2599C0.139857 22.9919 0.313685 23.4004 0.661342 23.7277C0.995326 24.0433 1.48361 24.1808 2.16915 24.1537C2.69454 24.1324 3.21017 24.0472 4.5715 23.7509C6.1672 23.4043 6.90548 23.2785 7.87228 23.1874C8.27267 23.1506 16.7102 23.1506 17.1106 23.1874C18.0774 23.2785 18.8156 23.4043 20.4113 23.7509C21.7727 24.0472 22.2883 24.1324 22.8137 24.1537C23.3098 24.1731 23.6692 24.1131 23.9953 23.9543C24.3313 23.7916 24.6106 23.4624 24.757 23.0577C24.9016 22.6646 24.968 22.2444 24.9856 21.6325C25.052 19.2507 24.1047 16.9095 22.384 15.2035C21.0031 13.8345 19.2434 12.965 17.3117 12.6978C16.9094 12.6416 16.9192 12.6397 16.759 12.7617Z" fill="#EF7504"/>
</svg>
