<svg width="54" height="47" viewBox="0 0 54 47" fill="none" xmlns="http://www.w3.org/2000/svg">
<path d="M52.6765 21.7848L47.7612 13.3821C47.8663 13.1747 47.9452 12.9413 47.9452 12.6819C47.9452 11.9039 47.2881 11.2555 46.4995 11.2295L41.0583 1.94504C41.1109 1.78945 41.1634 1.63386 41.1634 1.47826C41.1634 0.648411 40.48 0 39.6651 0C39.192 0 38.7977 0.207488 38.5085 0.544619H28.0469C27.784 0.207585 27.3897 9.68603e-05 26.9166 9.68603e-05C26.4435 9.68603e-05 26.0492 0.207585 25.7863 0.544716H15.3772C15.0881 0.207585 14.6939 9.68603e-05 14.2207 9.68603e-05C13.4059 9.68603e-05 12.7224 0.648411 12.7224 1.47836C12.7224 1.63395 12.775 1.81549 12.8276 1.94514L7.33378 11.3593C6.80818 11.5927 6.44008 12.0855 6.44008 12.682C6.44008 12.7338 6.46638 12.7857 6.46638 12.8376L1.23549 21.759C0.525797 21.8886 0 22.4852 0 23.2113C0 23.9115 0.499399 24.508 1.1829 24.6636L6.59778 33.8963C6.54518 34.0519 6.51888 34.1815 6.51888 34.3631C6.51888 35.0633 7.01828 35.6598 7.70178 35.7894L12.775 44.4774C12.7224 44.633 12.6699 44.8145 12.6699 44.9961C12.6699 45.8259 13.3533 46.4743 14.1682 46.4743C14.6413 46.4743 15.0356 46.2668 15.2984 45.9557H25.7864C26.0492 46.2667 26.4698 46.4742 26.9166 46.4742C27.3634 46.4742 27.784 46.2667 28.0469 45.9556H38.5612C38.824 46.2408 39.2183 46.4223 39.6389 46.4223C40.48 46.4223 41.1372 45.7481 41.1372 44.9441C41.1372 44.7885 41.111 44.6588 41.0584 44.5292L46.1316 35.7893C46.815 35.6597 47.3144 35.0632 47.3144 34.363C47.3144 34.2074 47.2881 34.0518 47.2355 33.8962L52.6241 24.6635C53.3075 24.5339 53.8333 23.9374 53.8333 23.2112C53.8331 22.511 53.3336 21.9145 52.6765 21.7848ZM13.7212 42.0913L9.43667 34.752H13.7212V42.0913ZM13.7212 33.9739H9.43667C9.41037 33.8703 9.35777 33.7666 9.30527 33.6628L13.7212 29.0725V33.9739ZM13.7212 27.9312L8.77947 33.0922C8.64807 33.0403 8.51657 32.9625 8.38517 32.9366L2.91789 23.6002C2.97039 23.4706 2.97039 23.3409 2.97039 23.2112C2.97039 23.0816 2.97039 22.9779 2.94409 22.8741L8.04357 14.1602C8.30647 14.1342 8.56927 14.0564 8.80587 13.9008L13.7213 18.9321V27.9312H13.7212ZM13.7212 18.0243L9.22637 13.434C9.35777 13.2265 9.43667 12.9673 9.43667 12.682C9.43667 12.6561 9.41037 12.6042 9.41037 12.5782L13.7212 11.0481V18.0243ZM13.7212 10.2181L9.43667 11.7483L13.7212 4.43479V10.2181ZM45.7635 14.0046L45.8424 14.1342L42.3726 30.3172L36.1166 23.8077L45.7372 13.9786L45.7635 14.0046ZM27.2846 32.8328L28.4149 33.9739H26.1806L27.2846 32.8328ZM27.2583 31.7436L19.0835 23.4706L26.8903 15.3013L35.0389 23.7818L27.2583 31.7436ZM27.784 32.3141L35.5646 24.3524L42.1886 31.2509L41.6104 33.9739H29.44L27.784 32.3141ZM38.9292 2.74914C39.0343 2.80103 39.1394 2.85293 39.2709 2.87888L44.9486 12.6301V12.682C44.9486 12.9673 45.0274 13.2265 45.1589 13.434L35.5909 23.2372L27.4424 14.7567L38.9292 2.74914ZM38.0355 2.54165L26.8903 14.1861L21.2914 8.35092L37.6148 2.54165H38.0355ZM25.9177 2.54165C26.1805 2.80094 26.5222 2.95653 26.9166 2.95653C27.311 2.95653 27.6526 2.80094 27.9155 2.54165H35.2755L20.7132 7.72846L15.719 2.54165H25.9177ZM14.5099 3.08627L14.615 2.87888C14.7036 2.85652 14.7913 2.83055 14.8779 2.80103L19.8984 8.01388L14.5099 9.93297V3.08627ZM14.5099 10.7628L20.4766 8.63625L26.3383 14.7567L18.5315 22.9L14.5099 18.8284V10.7628ZM14.5099 19.736L18.0846 23.3928L14.5099 27.1014V19.736ZM14.5099 28.2425L18.6366 23.9375L26.7589 32.2623L25.0766 33.9739H14.5099V28.2425ZM15.1933 43.9327C15.0356 43.7771 14.8516 43.6734 14.615 43.5955L14.5099 43.44V34.752H24.3143L15.3247 43.9327H15.1933ZM27.9418 43.9327C27.6789 43.6993 27.311 43.5178 26.9166 43.5178C26.5222 43.5178 26.1544 43.6993 25.8914 43.9327H16.4285L25.4182 34.752H29.1771L38.1668 43.9327H27.9418ZM39.7178 42.7915L39.2972 43.5177C39.1658 43.5437 39.0607 43.5955 38.9555 43.6473L30.2024 34.7519H41.4265L39.7178 42.7915ZM40.9794 40.639L42.2412 34.752H44.3966L40.9794 40.639ZM44.3966 33.9739H42.3989L42.8457 31.9252L44.528 33.6887C44.4755 33.7665 44.4229 33.8702 44.3966 33.9739ZM50.8891 23.5743L45.448 32.9366C45.3166 32.9884 45.1851 33.0403 45.0537 33.118L43.0297 30.9915L46.4206 15.1198L50.9153 22.7963C50.8891 22.926 50.8365 23.0556 50.8365 23.2112C50.8365 23.3409 50.8628 23.4447 50.8891 23.5743Z" fill="#EF7504"/>
</svg>
