<svg width="105" height="30" viewBox="0 0 105 30" fill="none" xmlns="http://www.w3.org/2000/svg">
<g clip-path="url(#clip0_20_908)">
<path d="M48.3273 2.94522C47.452 3.44295 44.1116 5.91879 43.0395 6.86512C42.4381 7.3949 41.3575 8.75992 40.035 10.6611C39.4379 11.5199 39.1362 11.9172 38.9564 12.0881L38.8066 12.2291L39.7846 13.0045C41.1135 14.0619 41.7319 14.534 41.8282 14.5725C41.8946 14.5981 42.0979 14.3439 42.8169 13.342C43.5894 12.2654 44.6787 10.8235 44.9119 10.5671C45.0253 10.4454 45.1537 10.3514 45.2115 10.3514C45.2907 10.3514 46.7416 11.8382 48.9821 14.2072C50.739 16.0678 50.861 16.2045 50.8396 16.275C50.7989 16.4053 50.7582 16.4502 49.6005 17.6571C49.2004 18.0737 48.2887 19.0264 47.5783 19.7719C45.0489 22.4251 44.3919 23.1044 43.4931 24.0037C42.8683 24.6254 42.558 24.9223 42.5066 24.9415C42.3418 25.0035 42.3247 25.0718 42.3975 25.3794C42.5408 25.9712 42.6864 26.3215 42.8554 26.486C43.0352 26.6633 43.2085 26.7423 44.0581 27.0392L44.4219 27.1653L44.6252 26.9559C44.8477 26.7252 45.5945 25.8921 46.8721 24.4502C50.2147 20.6756 51.9587 18.7124 52.3803 18.251L52.5494 18.0651L52.605 18.1121C52.8233 18.298 54.7813 20.3701 58.8216 24.6916C60.8374 26.847 60.8952 26.9068 60.9594 26.8961C60.9979 26.8919 61.1263 26.8705 61.2482 26.8534C61.5286 26.8107 61.9181 26.7103 62.1278 26.627C62.5023 26.4774 62.6478 26.345 62.8147 26.0011C62.9431 25.7404 63.0158 25.4884 63.0629 25.1658C63.1057 24.8732 63.095 24.8133 63.0094 24.8133C62.9217 24.8133 62.7227 24.7044 62.56 24.5634C62.483 24.4993 61.4986 23.5701 60.3752 22.4977C52.7013 15.1856 47.452 10.0758 47.0091 9.48836C46.8207 9.24269 46.7737 9.08462 46.84 8.92867C46.9363 8.69583 47.6018 8.13829 49.6326 6.59169C50.816 5.69022 50.9573 5.57273 50.9273 5.5236C50.9209 5.51078 50.8631 5.4766 50.8032 5.44669C50.6127 5.34843 50.3581 5.06645 49.6219 4.1244C48.9607 3.27847 48.5905 2.85337 48.5199 2.85337C48.5027 2.85337 48.415 2.89609 48.3273 2.94522Z" fill="#EF7504"/>
<path d="M56.6839 3.48575C56.5555 3.59897 56.121 3.9963 55.7209 4.37013C54.6274 5.39123 54.3535 5.6198 54.2079 5.6433C54.0346 5.67321 54.0367 5.68816 54.2572 5.92528C54.5054 6.19016 54.9869 6.65372 56.1489 7.74744C57.2445 8.77495 57.4863 9.03343 57.4863 9.17014C57.4863 9.35172 57.2103 9.67215 55.539 11.4302C54.454 12.5709 52.7742 14.3333 52.6137 14.4957L52.4553 14.658L53.2621 15.4142C53.7051 15.8308 54.086 16.1854 54.1052 16.1982C54.1395 16.2217 54.2186 16.1405 54.7921 15.4933C57.833 12.0711 58.8345 10.9517 59.0977 10.6762L59.2475 10.5223L59.3138 10.5715C59.3502 10.6014 59.7247 10.9581 60.1463 11.3683L60.9124 12.1159L62.0508 12.7226C64.9055 14.2414 66.1403 14.8887 66.1745 14.8759C66.1874 14.8716 66.0739 14.6196 65.922 14.3141C65.2158 12.8892 63.2792 9.18723 63.1037 8.92662C63.0802 8.8903 63.0053 8.82194 62.9411 8.77922C62.6543 8.58269 62.0273 8.03369 61.9374 7.89911C61.8005 7.69404 61.8754 7.47615 62.2156 7.0895C62.3526 6.93142 62.3526 6.91647 62.1899 6.91433C62.0423 6.91006 61.8668 6.80111 61.289 6.34611C60.9595 6.08763 60.8867 6.04704 60.7968 6.07695C60.7583 6.08976 60.6684 6.15171 60.6 6.21153C60.326 6.45505 60.2854 6.42728 58.5456 4.75465C57.3558 3.60965 56.9963 3.28068 56.9449 3.28068C56.9321 3.28068 56.8144 3.37254 56.6839 3.48575Z" fill="#EF7504"/>
</g>
<g clip-path="url(#clip1_20_908)">
<path d="M13.6725 0.0162029C13.1033 0.0853405 12.7316 0.170609 12.2414 0.336536C11.0983 0.723703 9.94599 1.41507 9.46972 1.99812C9.15608 2.38529 8.91678 3.0997 8.56132 4.70137C8.4893 5.02401 8.38011 5.5264 8.31506 5.81908C8.16404 6.50584 8.06879 6.87457 8.00374 7.01975L7.95263 7.13729L7.67616 7.20873C7.11857 7.35391 6.67018 7.40922 5.81058 7.44379C4.13085 7.51062 3.58024 7.60281 2.70669 7.97153C1.96789 8.28495 1.00606 8.93484 0.248677 9.63773L0.0906952 9.78292L0.0558462 9.9788C-0.0231448 10.4282 -0.0092052 11.0135 0.0930185 11.4998C0.237061 12.1843 0.6204 12.9678 1.09667 13.5463C2.13052 14.8045 3.68943 15.6319 5.483 15.8762C6.0127 15.9476 6.16836 15.9545 6.20321 15.913C6.25897 15.8462 6.21482 15.5512 6.07775 15.065C5.7734 13.998 5.69441 13.5993 5.67583 13.0646C5.66189 12.7005 5.6828 12.4931 5.75249 12.2788L5.78734 12.1727L5.98714 12.1566C6.63998 12.1013 7.15807 12.2903 7.45312 12.6867C7.66687 12.9747 7.75747 13.2029 7.94566 13.9288C8.02232 14.2215 8.10596 14.5165 8.13384 14.5856L8.18495 14.7078L8.14778 15.1018C8.09667 15.6065 8.09667 16.0329 8.14546 16.2011C8.23839 16.5307 8.25 16.5952 8.25233 16.8349C8.25698 17.1483 8.21051 17.3257 8.09667 17.4387C7.97586 17.5585 7.82717 17.5354 7.62272 17.3626C7.56929 17.3165 7.52747 17.2912 7.52747 17.3027C7.52747 17.3142 7.62505 17.4571 7.74353 17.6207C8.09667 18.107 8.22445 18.3443 8.2593 18.5817C8.28021 18.7177 8.24304 18.9735 8.14081 19.3929C7.95727 20.1488 7.98051 20.3724 8.25698 20.5083C8.34526 20.5521 8.39172 20.5982 8.47072 20.718C8.7286 21.1144 8.94699 21.5869 9.42558 22.7806C9.5975 23.2116 9.83215 23.7508 9.94599 23.979L10.1528 24.3938L10.4246 24.5206C11.3725 24.963 11.9742 25.4862 12.7269 26.5209C13.022 26.9265 13.1591 27.1892 13.324 27.6548C13.4541 28.0212 13.5401 28.194 13.7492 28.4982L13.9048 28.7218L14.0791 28.7656C14.1743 28.7886 14.395 28.8646 14.567 28.9361C15.8146 29.4454 15.9261 29.4823 16.2095 29.4846C16.5185 29.4869 16.5952 29.4016 16.6347 29.0006C16.6788 28.5305 16.8112 28.1571 17.1133 27.6548C17.3642 27.2353 17.8126 26.6154 17.952 26.4933C18.1192 26.3435 18.1634 26.2167 18.1936 25.8019C18.2052 25.6221 18.2331 25.4216 18.2517 25.3548C18.3005 25.1866 18.4189 25.0713 18.6002 25.0206C18.7186 24.9861 18.7442 24.9699 18.7976 24.8847C19.009 24.5482 19.0904 24.2924 19.2251 23.5549C19.3854 22.6861 19.4807 22.4027 19.7176 22.0962C19.95 21.7943 20.1056 21.414 20.1893 20.9347C20.2381 20.6535 20.3124 19.8515 20.2938 19.8193C20.2868 19.8077 20.3124 19.7133 20.3519 19.6072C20.6284 18.8467 20.8653 17.8097 20.9211 17.1068L20.9374 16.9178L21.0675 16.904C22.6148 16.7358 24.0645 16.1758 25.254 15.2885C26.3343 14.4819 27.0545 13.5186 27.3147 12.5276C27.3682 12.3318 27.3775 12.2465 27.3775 11.9838C27.3775 11.7187 27.3682 11.6381 27.3147 11.4422C27.1916 10.9859 26.9244 10.5388 26.5341 10.1355C26.0555 9.64003 25.5142 9.27591 24.8056 8.97863C24.4153 8.8127 24.4664 8.78735 24.3363 9.20908C23.9669 10.4028 23.5487 11.1034 22.933 11.5643C21.646 12.5253 19.009 12.5691 15.1594 11.6911C14.6204 11.5689 14.4647 11.5252 14.6831 11.5551C14.9805 11.5943 16.6579 11.728 17.4594 11.7764C18.6722 11.8455 20.0731 11.8662 20.784 11.8224C21.646 11.7694 22.1408 11.6243 22.1408 11.4215C22.1408 11.3846 22.1269 11.3615 22.1083 11.3615C22.0897 11.3615 21.9805 11.3131 21.8643 11.2555C21.6576 11.1495 21.6552 11.1495 21.5995 11.0089C21.4067 10.5227 21.2417 9.81979 20.6911 7.10963C20.1591 4.48935 19.9709 3.66893 19.6549 2.60422C19.4203 1.81145 19.1461 1.18231 18.9394 0.961073C18.7814 0.792839 18.5165 0.590038 18.3492 0.509378C18.0402 0.361887 17.8195 0.341146 17.1226 0.40337C16.1096 0.493246 15.2407 0.394152 14.5042 0.101473C14.251 0.00237656 14.2417 7.24792e-05 13.9931 0.00237656C13.856 0.00468063 13.712 0.0115948 13.6725 0.0162029ZM17.7963 0.668394C17.8683 0.668394 17.9729 0.774403 18.0379 0.912676C18.0728 0.984118 18.1541 1.25836 18.2168 1.51877C18.326 1.96586 18.4352 2.27006 18.5095 2.32998C18.5258 2.34611 18.5607 2.39912 18.5839 2.45212C18.6071 2.50282 18.6977 2.69179 18.7837 2.86925C18.8673 3.0467 18.9277 3.18036 18.9161 3.16884C18.9022 3.15501 18.7953 3.01674 18.6768 2.85772C18.5583 2.69871 18.3585 2.4429 18.2331 2.28619C18.1053 2.13179 17.9868 1.96586 17.9659 1.91746C17.9427 1.86215 17.9194 1.68701 17.9009 1.40585C17.8776 1.0279 17.866 0.963377 17.8126 0.845844C17.78 0.774403 17.7359 0.707571 17.715 0.700657C17.6964 0.693743 17.6801 0.675306 17.6801 0.663784C17.6801 0.649958 17.6964 0.647652 17.7173 0.654566C17.7382 0.66148 17.7731 0.668394 17.7963 0.668394ZM15.8076 0.739834C16.0213 0.908068 16.1793 1.63861 16.3582 3.29559C16.4535 4.19897 16.4395 5.24985 16.3094 6.66024C16.2304 7.51984 16.2281 7.62585 16.2746 7.93697C16.3094 8.16281 16.4442 8.60298 16.5441 8.8127C16.7927 9.33814 17.3409 9.63542 18.4352 9.83823C19.6549 10.0618 20.0313 10.1539 20.0824 10.2369C20.1312 10.3176 19.95 10.3867 19.5271 10.4489C18.8255 10.5549 18.3074 10.5711 17.2039 10.5227C14.7807 10.419 13.9908 10.3245 13.4564 10.0802C13.1149 9.9258 12.9384 9.74604 12.8292 9.44184C12.7734 9.28974 12.7688 9.24595 12.7688 8.93023C12.7711 8.42323 12.864 7.94849 13.2427 6.53349C13.4077 5.91126 13.4402 5.75225 13.568 4.93874C13.7492 3.78185 13.8677 3.13657 13.9978 2.61574C14.1534 1.98429 14.3277 1.52799 14.4857 1.34132C14.5484 1.26527 15.2128 0.850452 15.4266 0.751358C15.5846 0.677612 15.724 0.673002 15.8076 0.739834ZM12.9639 0.896544C13.331 0.921894 13.4402 0.951855 13.5401 1.05095C13.6167 1.127 13.6191 1.13622 13.6075 1.25375C13.5796 1.5303 13.338 1.86446 12.7316 2.46825C12.4946 2.70332 12.1601 3.00982 11.9881 3.1481C11.8162 3.28637 11.5862 3.48226 11.477 3.58366C11.2819 3.76572 11.1192 3.89016 10.55 4.30037C10.2225 4.53544 9.91346 4.84195 9.8275 5.0194C9.79498 5.08393 9.76013 5.13693 9.75083 5.13923C9.74154 5.13923 9.70205 5.07471 9.66255 4.99405C9.40932 4.45478 9.65093 3.56292 10.3293 2.55122C10.6174 2.12257 10.8614 1.82759 11.2308 1.46346C11.556 1.14083 11.8023 0.949549 11.9788 0.885021C12.0741 0.850452 12.3227 0.852758 12.9639 0.896544ZM10.2759 7.32626C10.4013 7.33778 10.5105 7.35391 10.5175 7.35852C10.5245 7.36544 10.5059 7.43227 10.478 7.50601C10.2852 8.01532 10.3363 8.93254 10.5872 9.46489C10.6221 9.53863 10.6546 9.60777 10.6616 9.6216C10.6662 9.63312 10.6151 9.59394 10.5477 9.53402C10.0064 9.05007 9.02133 8.68364 7.88758 8.54076C6.93504 8.42092 5.65956 8.43706 4.49561 8.58455C3.57327 8.70208 2.47204 8.93484 1.77506 9.15838C1.63334 9.20447 1.51021 9.24134 1.49859 9.24134C1.4893 9.24134 1.60082 9.18143 1.74486 9.10768C1.89123 9.03394 2.23507 8.84496 2.50922 8.68825C3.14114 8.32644 3.52681 8.14438 3.93802 8.00841L4.26328 7.90009L4.74884 7.93005C5.12986 7.9531 5.32966 7.9531 5.69209 7.93236C6.42159 7.88857 6.88392 7.82174 8.51486 7.51523C9.16305 7.39309 9.61376 7.33087 9.99013 7.31013C10.0227 7.30782 10.1504 7.31704 10.2759 7.32626ZM1.13849 9.38884C1.10596 9.40497 1.05485 9.42571 1.02232 9.43493C0.989799 9.44184 1.00606 9.42801 1.05717 9.40266C1.16172 9.35196 1.2291 9.34044 1.13849 9.38884ZM9.73225 13.1291C9.87629 13.196 10.0645 13.4103 10.1853 13.6384C10.2457 13.756 10.3014 13.8505 10.3107 13.8505C10.3409 13.8505 10.7591 13.7191 11.326 13.5347C11.7628 13.3919 11.8952 13.3573 12.0462 13.3481C12.2274 13.3388 12.4505 13.3688 12.5202 13.4126C12.5852 13.4518 12.5016 13.5002 12.0509 13.6753C11.8046 13.7721 11.5397 13.8919 11.4584 13.9449C11.3214 14.0325 11.247 14.1155 11.2772 14.1431C11.3051 14.1708 11.5188 14.1938 11.7605 14.1938L12.009 14.1961L12.0741 14.0786L12.1368 13.9611L12.1717 14.0141C12.2507 14.1385 12.4203 14.2791 12.5295 14.3091C12.8803 14.4082 13.2102 14.1547 13.2636 13.7491C13.2752 13.673 13.2892 13.6338 13.3078 13.6384C13.324 13.6407 13.633 13.6592 13.9931 13.6776C15.0154 13.7306 15.4684 13.7859 15.6728 13.885C15.954 14.021 16.3536 14.4865 16.414 14.7446C16.4325 14.8161 16.4767 15.1295 16.5185 15.4406C16.6091 16.155 16.6602 16.4431 16.7787 16.904C16.8949 17.358 16.9181 17.6599 16.8554 17.8719C16.8019 18.0563 16.6533 18.2084 16.4744 18.2614C16.3001 18.3121 15.9493 18.3075 15.566 18.2499C15.1129 18.183 14.9759 18.183 14.9108 18.2452C14.876 18.2798 14.8667 18.3052 14.8829 18.3213C14.948 18.3858 15.6055 18.5932 15.9493 18.6578L16.0422 18.6739L15.9725 18.6923C15.9354 18.7016 15.8006 18.7269 15.6752 18.7453C15.1199 18.8352 14.6971 19.0288 13.5099 19.7386C12.3947 20.4046 12.0044 20.5936 11.4538 20.7342C10.7568 20.9116 10.32 20.5406 10.025 19.5197C9.91579 19.1371 9.867 18.902 9.73457 18.13C9.54639 17.0492 9.44416 16.662 9.23507 16.2449C9.13517 16.049 8.97719 15.8047 8.84941 15.6434C8.80294 15.5881 8.79365 15.5167 8.74254 14.929C8.71233 14.5718 8.67516 14.1662 8.6589 14.0302L8.6287 13.7836L8.73092 13.6384C8.93072 13.3527 9.18628 13.1384 9.37911 13.09C9.48831 13.0646 9.62306 13.0784 9.73225 13.1291ZM18.4398 15.2655C18.5328 15.2862 18.6745 15.33 18.7535 15.3646C18.8975 15.4268 18.9045 15.4268 19.4226 15.4291H19.9453L20.0847 15.4982C20.1823 15.5466 20.2497 15.6019 20.3101 15.6826C20.5378 15.9845 20.5285 16.3071 20.2706 17.1321C20.1289 17.5815 20.0778 17.8189 20.0592 18.1024C20.0429 18.3305 20.0406 18.3351 19.9151 18.5402C19.7502 18.8076 19.6201 18.9735 19.476 19.1072C19.2576 19.3123 19.0834 19.3607 18.858 19.2869C18.4956 19.1671 18.1285 18.9159 17.9009 18.6324C17.715 18.402 17.6569 18.2821 17.6569 18.1208C17.6569 17.9341 17.6104 17.7429 17.4362 17.1828C17.2155 16.4707 17.1899 16.3486 17.1783 15.89C17.1667 15.5282 17.169 15.4936 17.2108 15.4268C17.262 15.3461 17.4106 15.2655 17.5663 15.2332C17.7103 15.2032 18.2424 15.2217 18.4398 15.2655ZM17.5524 20.0151C18.1146 20.241 18.405 20.6743 18.3074 21.1398C18.2749 21.2988 18.103 21.6998 18.0124 21.8334C17.8312 22.0962 17.5082 22.3312 17.262 22.3773C17.0064 22.4257 16.8298 22.322 16.6881 22.0386C16.4279 21.52 15.8703 21.308 15.48 21.5753C15.3615 21.656 15.2547 21.8104 15.2059 21.9671C15.178 22.0639 15.0851 22.2598 14.7598 22.9235C14.6227 23.2024 14.4717 23.3406 14.2626 23.3798C14.1163 23.4075 13.4077 23.1447 13.101 22.9489C12.8083 22.7622 12.6201 22.5064 12.5992 22.2598C12.5875 22.1492 12.6015 22.0754 12.6828 21.8081C12.7386 21.6329 12.7966 21.4486 12.8175 21.3979C12.9058 21.1605 13.0359 21.0453 13.2985 20.9692C13.4634 20.9208 13.6818 20.8148 14.1604 20.5567C14.3021 20.4807 14.4833 20.3977 14.567 20.3701C14.8272 20.2894 15.1617 20.3194 15.3638 20.4415C15.4057 20.4668 15.4591 20.4876 15.487 20.4876C15.6124 20.4876 15.9191 20.3839 16.2327 20.2318C16.4209 20.1419 16.6602 20.0359 16.7625 19.999C16.9297 19.9391 16.9715 19.9345 17.169 19.9414C17.3456 19.9483 17.4223 19.9621 17.5524 20.0151Z" fill="#EF7504"/>
</g>
<g clip-path="url(#clip2_20_908)">
<path d="M77.7819 10.2517C77.7412 10.2709 77.6878 10.3158 77.6642 10.3479C77.6214 10.4057 77.6193 10.4399 77.6129 11.1136C77.6064 11.7787 77.6086 11.8236 77.6492 11.9134C77.6835 11.9904 77.7113 12.0204 77.784 12.0524C77.8696 12.0909 77.9274 12.0952 78.5394 12.0952C78.9118 12.0952 79.2371 12.0867 79.2799 12.0738C79.3205 12.0631 79.3826 12.0225 79.419 11.9861L79.481 11.922L79.4874 11.1734C79.4939 10.4484 79.4917 10.4206 79.4489 10.3522C79.3655 10.2174 79.3398 10.2132 78.5566 10.2132C77.9317 10.2132 77.8461 10.2174 77.7819 10.2517Z" fill="#EF7504"/>
<path d="M80.2002 10.2517C80.1596 10.271 80.1061 10.3159 80.0825 10.3479C80.0397 10.4078 80.0376 10.4335 80.0376 11.1542C80.0376 12.1744 79.9584 12.0953 80.9642 12.0953C81.711 12.0953 81.741 12.091 81.8459 11.9776L81.8994 11.9199V11.1542V10.3886L81.8459 10.3308C81.741 10.2175 81.711 10.2132 80.9642 10.2132C80.3479 10.2132 80.2644 10.2175 80.2002 10.2517Z" fill="#EF7504"/>
<path d="M82.6867 10.2324C82.5819 10.2602 82.5091 10.3158 82.4749 10.3971C82.4492 10.4591 82.4449 10.6003 82.4492 11.197L82.4556 11.9241L82.5369 12.0032L82.6161 12.0845L83.3608 12.0909C84.0499 12.0952 84.1077 12.0931 84.1761 12.0567C84.3238 11.9776 84.3281 11.9562 84.3281 11.1542C84.3281 10.149 84.4008 10.226 83.4293 10.2196C83.0591 10.2174 82.7231 10.2239 82.6867 10.2324Z" fill="#EF7504"/>
<path d="M85.0086 10.2666C84.9786 10.2837 84.9315 10.3308 84.908 10.3714C84.8652 10.4399 84.863 10.4698 84.863 11.167C84.863 11.8493 84.8652 11.8963 84.9058 11.9605C84.985 12.0931 84.9979 12.0952 85.8068 12.0952C86.5022 12.0952 86.5408 12.0931 86.6071 12.0524C86.7419 11.969 86.7462 11.9412 86.7462 11.1649C86.7462 10.3885 86.7419 10.3607 86.6071 10.2773C86.5408 10.2367 86.5022 10.2346 85.8025 10.2346C85.2033 10.2367 85.0556 10.241 85.0086 10.2666Z" fill="#EF7504"/>
<path d="M87.4375 10.2688C87.399 10.288 87.3476 10.3351 87.3241 10.3736C87.2834 10.4399 87.2813 10.4784 87.2813 11.167C87.2813 12.1851 87.2021 12.1038 88.1908 12.1123C88.8905 12.1188 88.897 12.1166 88.9911 12.0696C89.1623 11.9819 89.1644 11.9733 89.1644 11.1756C89.1644 10.3993 89.1602 10.38 89.0168 10.2838C88.944 10.2346 88.9376 10.2346 88.225 10.2346C87.6108 10.2346 87.4953 10.241 87.4375 10.2688Z" fill="#EF7504"/>
<path d="M89.8597 10.2774C89.6992 10.3566 89.6992 10.3523 89.6992 11.1757C89.6992 11.9969 89.6992 11.9969 89.8533 12.0761C89.9261 12.1146 89.986 12.1167 90.6322 12.1167C91.4048 12.1167 91.4304 12.1124 91.5246 11.9798C91.5717 11.9135 91.5717 11.905 91.5717 11.1757C91.5717 10.1555 91.6487 10.2347 90.6365 10.2347C89.9881 10.2347 89.9389 10.2368 89.8597 10.2774Z" fill="#EF7504"/>
<path d="M92.3186 10.2582C92.2202 10.286 92.1239 10.4057 92.1068 10.517C92.1004 10.5683 92.0961 10.8976 92.1004 11.2505C92.1068 11.9627 92.1132 11.9905 92.2523 12.0739C92.3165 12.1146 92.3636 12.1167 93.0441 12.1167C93.8401 12.1167 93.8444 12.1167 93.9407 11.9841L93.9899 11.9135V11.1821C93.9899 10.4785 93.9878 10.4485 93.945 10.3929C93.9214 10.3608 93.8744 10.3138 93.8423 10.2903C93.7866 10.2475 93.7545 10.2453 93.0847 10.2411C92.6974 10.2389 92.355 10.2453 92.3186 10.2582Z" fill="#EF7504"/>
<path d="M94.696 10.2774C94.6297 10.3031 94.5591 10.3908 94.5355 10.472C94.5077 10.5683 94.5077 11.8045 94.5355 11.9071C94.5484 11.9499 94.5912 12.014 94.634 12.0504L94.7088 12.1167H95.4514C96.1512 12.1167 96.1983 12.1146 96.2624 12.0739C96.3951 11.9948 96.3973 11.9798 96.3973 11.1864C96.3973 10.3929 96.3951 10.3779 96.2624 10.2988C96.1983 10.2582 96.1512 10.256 95.4664 10.2582C95.0662 10.2582 94.7195 10.2667 94.696 10.2774Z" fill="#EF7504"/>
<path d="M97.0801 10.3051C96.9367 10.4014 96.9324 10.4228 96.9324 11.1927C96.9324 12.1893 96.8725 12.1252 97.7884 12.1337C98.5631 12.1423 98.623 12.1359 98.7279 12.0418L98.8049 11.9712L98.8113 11.2141C98.8156 10.504 98.8135 10.4548 98.7749 10.3928C98.6936 10.2602 98.6615 10.2559 97.8676 10.2559C97.1593 10.2559 97.1529 10.2559 97.0801 10.3051Z" fill="#EF7504"/>
<path d="M99.5281 10.3202C99.3955 10.3993 99.3933 10.4143 99.3933 11.212C99.3933 11.8921 99.3955 11.9392 99.4361 12.0033C99.5238 12.1466 99.3355 12.1381 102.199 12.1381C104.76 12.1381 104.792 12.1381 104.861 12.0953C104.996 12.0119 105 11.9841 105 11.2078C105 10.4314 104.996 10.4036 104.861 10.3202C104.792 10.2774 104.76 10.2774 102.194 10.2774C99.6565 10.2774 99.5945 10.2796 99.5281 10.3202Z" fill="#EF7504"/>
<path d="M77.7798 12.6684C77.7392 12.6876 77.6835 12.7368 77.6579 12.7774C77.6086 12.8502 77.6086 12.8566 77.6086 13.5709C77.6086 14.2852 77.6086 14.2916 77.6579 14.3644C77.7606 14.5183 77.675 14.5119 79.4169 14.5119C80.9063 14.5119 80.9833 14.5098 81.0689 14.4713C81.2337 14.3943 81.2359 14.3879 81.2359 13.5709C81.2359 12.8929 81.2337 12.8502 81.1931 12.7817C81.1695 12.7432 81.116 12.6919 81.0754 12.6705C81.0047 12.632 80.9213 12.6299 79.4276 12.6299C77.9724 12.6299 77.8483 12.632 77.7798 12.6684Z" fill="#EF7504"/>
<path d="M101.298 12.6683C101.251 12.694 101.204 12.7432 101.176 12.8009C101.129 12.8929 101.127 12.9121 101.127 13.5709C101.127 14.1868 101.131 14.2531 101.167 14.3344C101.197 14.3985 101.234 14.437 101.296 14.467C101.381 14.5119 101.407 14.5119 103.068 14.5119C104.949 14.5119 104.848 14.5204 104.951 14.3643C105 14.2916 105 14.2852 105 13.5709C105 12.8565 105 12.8501 104.951 12.7774C104.848 12.6213 104.949 12.6298 103.063 12.6298C101.467 12.6298 101.369 12.632 101.298 12.6683Z" fill="#EF7504"/>
<path d="M81.9292 12.7005C81.7858 12.7967 81.7815 12.8181 81.7815 13.5795C81.7815 14.2168 81.7836 14.2682 81.8243 14.3516C81.9035 14.5141 81.8949 14.512 82.7402 14.512C83.4656 14.512 83.4892 14.5098 83.5448 14.467C83.6625 14.3751 83.6646 14.3601 83.6646 13.5816C83.6646 12.7882 83.6625 12.7732 83.5298 12.6941C83.4656 12.6534 83.4186 12.6513 82.7316 12.6513C82.0083 12.6513 82.0019 12.6513 81.9292 12.7005Z" fill="#EF7504"/>
<path d="M84.373 12.6897C84.3323 12.7089 84.2788 12.7538 84.2553 12.7859C84.2125 12.8437 84.2103 12.8779 84.2039 13.5665C84.1975 14.3621 84.2018 14.3792 84.3345 14.4776C84.3922 14.5204 84.4265 14.5225 85.0941 14.5289C85.5393 14.5332 85.8217 14.5289 85.8688 14.514C85.9116 14.5011 85.9737 14.4626 86.0079 14.4263L86.0721 14.36V13.5922V12.8265L86.0186 12.7688C85.9095 12.6512 85.9052 12.6512 85.1476 12.6512C84.5206 12.6512 84.4372 12.6555 84.373 12.6897Z" fill="#EF7504"/>
<path d="M86.8234 12.6725C86.7913 12.6832 86.7442 12.7089 86.7206 12.7303C86.6201 12.8201 86.6179 12.8436 86.6179 13.5965C86.6179 14.2701 86.6201 14.3129 86.6607 14.3792C86.6843 14.4177 86.7335 14.4669 86.772 14.4904C86.8383 14.5311 86.8811 14.5332 87.5552 14.5332C88.3235 14.5332 88.3277 14.5332 88.4369 14.4156L88.4904 14.3578L88.4968 13.6178C88.5032 12.5784 88.5824 12.664 87.5916 12.6576C87.2043 12.6554 86.8576 12.6619 86.8234 12.6725Z" fill="#EF7504"/>
<path d="M89.1707 12.7153C89.038 12.7944 89.0359 12.8094 89.0359 13.5965C89.0359 14.3942 89.0402 14.4156 89.1878 14.4947C89.2563 14.5311 89.3141 14.5332 90.0031 14.5289L90.7478 14.5225L90.827 14.4412L90.9083 14.3621L90.9148 13.6349C90.9212 12.8265 90.9169 12.7944 90.7821 12.7132C90.72 12.6747 90.6622 12.6725 89.9775 12.6725C89.282 12.6725 89.2349 12.6747 89.1707 12.7153Z" fill="#EF7504"/>
<path d="M91.5889 12.7132C91.4562 12.7966 91.4541 12.8094 91.4541 13.6072C91.4541 14.2873 91.4562 14.3343 91.4969 14.3985C91.5761 14.5311 91.5889 14.5332 92.3957 14.5332C93.2174 14.5332 93.2174 14.5332 93.2966 14.3792C93.3351 14.3065 93.3373 14.2466 93.3373 13.6136C93.3373 12.8714 93.333 12.8415 93.2196 12.7367L93.1618 12.6832L92.4107 12.6768C91.6938 12.6725 91.6531 12.6747 91.5889 12.7132Z" fill="#EF7504"/>
<path d="M94.0243 12.709C93.8723 12.7839 93.8723 12.7881 93.8723 13.6179V14.3579L93.9301 14.4285C94.035 14.5504 94.0606 14.5547 94.8075 14.5547C95.4366 14.5547 95.4944 14.5504 95.58 14.5119C95.6527 14.4798 95.6806 14.4499 95.7148 14.3729C95.7555 14.2809 95.7576 14.2382 95.7512 13.573C95.7426 12.5978 95.8218 12.6726 94.8032 12.6726C94.189 12.6726 94.0884 12.6791 94.0243 12.709Z" fill="#EF7504"/>
<path d="M96.4508 12.7154C96.2796 12.7988 96.2796 12.8031 96.2796 13.6137C96.2796 14.6295 96.2047 14.5547 97.2211 14.5547C98.03 14.5547 98.0365 14.5525 98.1263 14.3814C98.1734 14.2873 98.1755 14.2809 98.1691 13.5923C98.1627 12.8009 98.1606 12.7881 97.9958 12.7133C97.9145 12.6769 97.8481 12.6726 97.2211 12.6726C96.5791 12.6726 96.5299 12.6748 96.4508 12.7154Z" fill="#EF7504"/>
<path d="M98.9374 12.694C98.8368 12.7133 98.7362 12.8074 98.7062 12.9079C98.6913 12.9549 98.687 13.233 98.6913 13.6671C98.6977 14.4264 98.6977 14.4242 98.8432 14.5119C98.9074 14.5525 98.9566 14.5547 99.635 14.5547C100.433 14.5547 100.448 14.5525 100.527 14.42C100.568 14.3558 100.57 14.3087 100.57 13.6072V12.8651L100.5 12.7881C100.45 12.7325 100.403 12.7069 100.335 12.6919C100.219 12.6705 99.0529 12.6705 98.9374 12.694Z" fill="#EF7504"/>
<path d="M77.8268 15.0616C77.7412 15.0787 77.6342 15.2049 77.6192 15.3075C77.6128 15.3589 77.6085 15.6989 77.6128 16.0668C77.6192 16.702 77.6214 16.7362 77.6642 16.7939C77.6877 16.826 77.7412 16.8709 77.7819 16.8902C77.8503 16.9265 77.998 16.9287 79.9582 16.9287C82.2693 16.9287 82.1559 16.9351 82.2543 16.7982L82.3057 16.7255V15.9876C82.3057 15.1771 82.3078 15.1899 82.1709 15.0958C82.1153 15.0595 82.0061 15.0573 79.9946 15.0552C78.8283 15.053 77.8546 15.0573 77.8268 15.0616Z" fill="#EF7504"/>
<path d="M83.0205 15.1385C82.8771 15.2348 82.8728 15.254 82.8728 16.0304C82.8728 16.8088 82.8771 16.8302 83.0247 16.9179C83.0932 16.9586 83.136 16.9607 83.8251 16.9607C84.634 16.9607 84.6233 16.9628 84.7132 16.8153C84.7538 16.7511 84.756 16.7019 84.756 16.0218C84.756 15.3332 84.7538 15.2947 84.7132 15.2284C84.6297 15.0936 84.604 15.0893 83.808 15.0893C83.0996 15.0893 83.0932 15.0893 83.0205 15.1385Z" fill="#EF7504"/>
<path d="M85.5243 15.1086C85.4173 15.1429 85.3723 15.1792 85.3317 15.2669C85.2953 15.3482 85.291 15.4166 85.291 16.0411C85.291 16.8046 85.2953 16.826 85.4387 16.9222C85.5114 16.9714 85.5178 16.9714 86.2262 16.9714C87.0201 16.9714 87.0522 16.9672 87.1335 16.8346C87.172 16.7725 87.1742 16.7148 87.1742 16.0261V15.284L87.1078 15.2092C87.0715 15.1664 87.0073 15.1236 86.9645 15.1108C86.8724 15.0851 85.6077 15.0851 85.5243 15.1086Z" fill="#EF7504"/>
<path d="M87.8911 15.1193C87.8547 15.1343 87.7991 15.1792 87.767 15.2156L87.7092 15.2861V16.0304V16.7747L87.767 16.8453C87.8719 16.9672 87.8975 16.9714 88.6508 16.9714C89.4105 16.9714 89.4404 16.9672 89.5303 16.841L89.5817 16.7683V16.0261C89.5817 15.0103 89.6609 15.0894 88.6508 15.0894C88.1201 15.0915 87.9403 15.0979 87.8911 15.1193Z" fill="#EF7504"/>
<path d="M90.3286 15.113C90.2901 15.1237 90.2302 15.1664 90.1938 15.2071L90.1274 15.2841V16.0262C90.1274 16.732 90.1296 16.7726 90.1702 16.8389C90.2494 16.9672 90.2837 16.9715 91.0733 16.9715C92.0769 16.9715 91.9978 17.0485 92.0063 16.0668C92.0149 15.0317 92.0812 15.1023 91.0904 15.0959C90.7074 15.0937 90.365 15.1001 90.3286 15.113Z" fill="#EF7504"/>
<path d="M92.644 15.177C92.5969 15.2176 92.5584 15.2753 92.5455 15.3267C92.5305 15.3823 92.5241 15.6582 92.5284 16.0902C92.5348 16.843 92.5348 16.8409 92.6803 16.9285C92.7445 16.9692 92.7938 16.9713 93.4764 16.9713C94.4907 16.9713 94.4158 17.0376 94.4244 16.1372C94.433 15.3652 94.4265 15.3031 94.3324 15.1983L94.2618 15.1214L93.4914 15.1149L92.721 15.1085L92.644 15.177Z" fill="#EF7504"/>
<path d="M95.0899 15.1598C94.9466 15.2561 94.9423 15.2775 94.9423 16.0388C94.9423 17.0462 94.8781 16.9799 95.8453 16.9884C96.2669 16.9927 96.5558 16.9863 96.605 16.9735C96.6521 16.9606 96.7163 16.92 96.7505 16.8858L96.8147 16.8195L96.8212 16.0731C96.8276 15.2454 96.8254 15.2347 96.6906 15.1534C96.6264 15.1128 96.5793 15.1107 95.8924 15.1107C95.1691 15.1107 95.1627 15.1107 95.0899 15.1598Z" fill="#EF7504"/>
<path d="M97.5337 15.1492C97.4931 15.1684 97.4396 15.2133 97.416 15.2454C97.3732 15.3053 97.3711 15.331 97.3711 16.0517C97.3711 17.0718 97.2919 16.9927 98.2977 16.9927C99.0445 16.9927 99.0745 16.9884 99.1793 16.8751L99.2328 16.8173L99.2393 16.0624L99.2457 15.3074L99.1879 15.2411C99.0788 15.1107 99.0788 15.1107 98.3084 15.1107C97.6814 15.1107 97.5979 15.1149 97.5337 15.1492Z" fill="#EF7504"/>
<path d="M99.9712 15.1258C99.954 15.1322 99.9155 15.1579 99.8898 15.1835C99.7807 15.2819 99.7786 15.2948 99.7786 16.0454C99.7786 16.8303 99.7828 16.8539 99.9284 16.9394C100.003 16.9822 100.029 16.9822 102.389 16.9822C104.75 16.9822 104.775 16.9822 104.85 16.9394C104.996 16.8539 105 16.8303 105 16.0454C105 15.2883 105 15.2841 104.882 15.175L104.825 15.1215L102.415 15.1172C101.088 15.1151 99.9883 15.1194 99.9712 15.1258Z" fill="#EF7504"/>
<path d="M81.4242 17.5681C81.2787 17.658 81.2787 17.6558 81.2723 18.4065C81.268 18.8449 81.2744 19.1144 81.2894 19.17C81.3023 19.2235 81.3408 19.2812 81.3857 19.3219L81.4628 19.3882H82.4578C83.5749 19.3882 83.5428 19.3924 83.6241 19.2342C83.6626 19.1615 83.6648 19.1016 83.6648 18.4578C83.6648 17.705 83.6648 17.7007 83.5471 17.5917L83.4893 17.5382L82.4921 17.5318C81.5312 17.5275 81.4906 17.5297 81.4242 17.5681Z" fill="#EF7504"/>
<path d="M84.3344 17.5703C84.1889 17.658 84.1889 17.6558 84.1825 18.4087C84.1782 18.8407 84.1846 19.1166 84.1996 19.1722C84.2124 19.2235 84.2509 19.2812 84.2959 19.3219L84.3729 19.3882H91.2871C98.182 19.3882 98.2012 19.3882 98.2697 19.3454C98.4045 19.262 98.4088 19.2342 98.4088 18.4707C98.4088 17.7264 98.4045 17.6965 98.2911 17.5917L98.2333 17.5382L91.3192 17.5339C84.4927 17.5275 84.4029 17.5275 84.3344 17.5703Z" fill="#EF7504"/>
<path d="M99.0788 17.5681C98.9333 17.658 98.9333 17.6558 98.9268 18.4086C98.9226 18.8406 98.929 19.1165 98.944 19.1721C98.9568 19.2235 98.9953 19.2812 99.0403 19.3219L99.1173 19.3882H100.112C101.236 19.3882 101.195 19.3946 101.276 19.2277C101.317 19.1443 101.319 19.093 101.319 18.4621C101.319 17.7264 101.315 17.6943 101.202 17.5917L101.144 17.5382L100.147 17.5318C99.1858 17.5275 99.1451 17.5296 99.0788 17.5681Z" fill="#EF7504"/>
<path d="M101.989 17.5703C101.856 17.6494 101.854 17.6644 101.854 18.4621C101.854 19.1422 101.856 19.1893 101.897 19.2534C101.981 19.3924 101.925 19.3882 103.421 19.3882C104.709 19.3882 104.78 19.386 104.842 19.3475C104.974 19.2684 104.979 19.232 104.979 18.4536C104.979 17.6687 104.974 17.6451 104.827 17.566C104.758 17.5296 104.67 17.5275 103.406 17.5275C102.107 17.5275 102.055 17.5296 101.989 17.5703Z" fill="#EF7504"/>
<path d="M77.7776 17.628C77.6556 17.7307 77.6514 17.7585 77.6514 18.5006C77.6514 19.2427 77.6556 19.2705 77.7776 19.3732L77.8482 19.4309H79.2092C80.5232 19.4309 80.5745 19.4288 80.6409 19.3881C80.7735 19.309 80.7757 19.294 80.7757 18.5006C80.7757 17.7071 80.7735 17.6922 80.6409 17.613C80.5745 17.5724 80.5232 17.5702 79.2092 17.5702H77.8482L77.7776 17.628Z" fill="#EF7504"/>
</g>
<defs>
<clipPath id="clip0_20_908">
<rect width="27.3913" height="24.3098" fill="white" transform="translate(38.8044 2.85327)"/>
</clipPath>
<clipPath id="clip1_20_908">
<rect width="27.3913" height="29.4983" fill="white"/>
</clipPath>
<clipPath id="clip2_20_908">
<rect width="27.3913" height="13.6876" fill="white" transform="translate(77.6086 7.98901)"/>
</clipPath>
</defs>
</svg>
